<!-- Generated by IcoMoon.io -->
<svg version="1.1" xmlns="http://www.w3.org/2000/svg" width="236" height="32" viewBox="0 0 236 32">
<title>big5-logo</title>
<path fill="#808080" d="M232.809 1.222c1.582 0 2.876 1.222 2.876 2.769s-1.258 2.769-2.876 2.769c-1.618 0-2.912-1.222-2.912-2.769s1.294-2.769 2.912-2.769v0zM232.773 1.654c-1.294 0-2.337 1.043-2.337 2.337 0 1.33 1.043 2.337 2.337 2.337s2.337-1.043 2.337-2.337-1.007-2.337-2.337-2.337v0zM232.234 5.537h-0.503v-3.092c0.288-0.036 0.539-0.072 0.935-0.072 0.503 0 0.827 0.108 1.007 0.216 0.18 0.144 0.288 0.36 0.288 0.647 0 0.396-0.288 0.647-0.647 0.755v0.036c0.288 0.036 0.467 0.288 0.539 0.755s0.144 0.647 0.216 0.755h-0.539c-0.072-0.108-0.144-0.396-0.216-0.791s-0.288-0.539-0.719-0.539h-0.36v1.33zM232.234 3.883h0.36c0.431 0 0.791-0.144 0.791-0.539 0-0.288-0.216-0.539-0.791-0.539-0.18 0-0.288 0-0.36 0.036v1.043z"></path>
<path fill="#808080" d="M10.067 28.656c-0.036 0.36-0.108 0.683-0.288 0.971-0.216 0.288-0.467 0.539-0.827 0.755s-0.755 0.36-1.222 0.467c-0.467 0.108-0.971 0.18-1.546 0.18s-1.151-0.036-1.726-0.144c-0.539-0.072-1.043-0.252-1.51-0.503-0.072-0.036-0.144-0.072-0.216-0.108s-0.144-0.072-0.18-0.108l-0.216 0.719h-2.337v-2.265h1.69c0.324 0.18 1.618 0.611 1.978 0.719s0.719 0.216 1.115 0.288c0.396 0.072 0.791 0.108 1.151 0.108 0.144 0 0.288 0 0.431 0s0.288-0.036 0.396-0.072c0.144-0.036 0.216-0.072 0.324-0.144 0.072-0.072 0.108-0.144 0.108-0.252 0-0.144-0.108-0.252-0.324-0.36-0.216-0.072-1.87-0.18-3.38-0.324-0.971-0.072-1.87-0.324-2.661-0.827-0.575-0.36-0.827-0.863-0.755-1.618 0.036-0.395 0.108-0.719 0.324-0.971s0.503-0.467 0.827-0.647c0.467-0.252 1.582-0.503 2.445-0.467 0.791 0.036 1.474 0.072 2.049 0.216s1.079 0.36 1.438 0.611l0.18-0.683h2.229v1.978h-1.87c-0.36-0.18-0.899-0.36-1.582-0.503-0.611-0.144-1.222-0.252-1.906-0.252-0.971-0.036-1.438 0.216-1.438 0.467 0 0.144 0.108 0.252 0.324 0.324s1.582 0.18 2.013 0.18c0.431 0.036 2.229 0.144 2.697 0.252 0.431 0.072 0.827 0.18 1.187 0.36 0.827 0.431 1.115 1.222 1.079 1.654z"></path>
<path fill="#808080" d="M163.272 28.656c-0.036 0.36-0.108 0.683-0.288 0.971-0.216 0.288-0.467 0.539-0.827 0.755s-0.755 0.36-1.222 0.467c-0.467 0.108-0.971 0.18-1.546 0.18s-1.151-0.036-1.726-0.144c-0.539-0.072-1.043-0.252-1.51-0.503-0.072-0.036-0.144-0.072-0.216-0.108s-0.144-0.072-0.18-0.108l-0.216 0.719h-2.337v-2.265h1.69c0.324 0.18 1.618 0.611 1.978 0.719s0.719 0.216 1.115 0.288c0.395 0.072 0.791 0.108 1.151 0.108 0.144 0 0.288 0 0.431 0s0.288-0.036 0.395-0.072c0.144-0.036 0.216-0.072 0.324-0.144 0.072-0.072 0.108-0.144 0.108-0.252 0-0.144-0.108-0.252-0.324-0.36-0.216-0.072-1.294-0.108-1.582-0.108-0.288-0.036-0.288 0-1.798-0.108-0.971-0.072-1.834-0.288-2.625-0.791-0.575-0.36-0.827-0.935-0.791-1.726 0.036-0.395 0.108-0.719 0.324-0.971s0.503-0.467 0.827-0.647c0.324-0.18 0.719-0.288 1.151-0.36s0.863-0.108 1.294-0.108c0.791 0 1.474 0.072 2.049 0.216s1.079 0.36 1.438 0.611l0.18-0.683h2.229v1.978h-1.87c-0.431-0.324-1.007-0.324-1.582-0.503s-1.222-0.252-1.906-0.252c-0.108 0-0.252 0-0.431 0s-0.324 0.036-0.467 0.036c-0.144 0.036-0.252 0.072-0.36 0.144s-0.144 0.144-0.144 0.252c0 0.144 0.108 0.324 0.324 0.395s0.503 0.144 0.827 0.18c0.36 0.036 0.755 0 1.187 0 0.431 0.036 2.229 0.072 2.697 0.18 0.431 0.072 0.827 0.18 1.187 0.36 0.791 0.431 1.043 1.222 1.043 1.654z"></path>
<path fill="#808080" d="M21.825 26.139c0 0.36-0.108 0.647-0.324 0.899s-0.467 0.431-0.827 0.611c-0.36 0.144-0.755 0.288-1.187 0.324-0.467 0.072-0.935 0.108-1.438 0.108h-2.481v1.151h1.546v1.654h-6.472v-1.654h1.51v-3.38h-1.51v-1.654h7.587c0.467 0 0.935 0.036 1.366 0.108s0.827 0.216 1.151 0.36c0.324 0.18 0.611 0.36 0.791 0.611 0.216 0.252 0.288 0.539 0.288 0.863zM18.193 26.463c0-0.18-0.108-0.324-0.288-0.431-0.216-0.108-0.431-0.18-0.719-0.18h-1.546v1.222h1.438c0.324 0 0.611-0.036 0.827-0.144 0.18-0.072 0.288-0.252 0.288-0.467z"></path>
<path fill="#808080" d="M34.157 27.613c0 0.503-0.144 0.971-0.467 1.402s-0.755 0.791-1.294 1.079c-0.539 0.288-1.187 0.539-1.906 0.719s-1.51 0.252-2.337 0.252c-0.827 0-1.618-0.072-2.373-0.252-0.719-0.18-1.366-0.395-1.906-0.719-0.539-0.288-0.971-0.647-1.258-1.079-0.324-0.431-0.467-0.899-0.467-1.402s0.144-1.007 0.431-1.438c0.288-0.431 0.719-0.791 1.258-1.115s1.151-0.539 1.906-0.719c0.719-0.18 1.546-0.252 2.409-0.252 0.899 0 1.69 0.072 2.445 0.252 0.719 0.18 1.366 0.431 1.906 0.719 0.539 0.324 0.935 0.683 1.222 1.115s0.431 0.899 0.431 1.438zM30.022 27.506c0-0.18-0.036-0.395-0.072-0.611s-0.144-0.431-0.252-0.611c-0.144-0.18-0.324-0.324-0.575-0.467-0.252-0.108-0.575-0.18-1.007-0.18-0.395 0-0.683 0.072-0.935 0.18-0.216 0.144-0.431 0.288-0.539 0.467-0.144 0.18-0.216 0.395-0.288 0.611-0.036 0.216-0.072 0.395-0.072 0.575s0.036 0.395 0.072 0.611c0.036 0.216 0.144 0.431 0.288 0.611s0.324 0.36 0.575 0.503c0.252 0.144 0.575 0.18 0.935 0.18 0.395 0 0.683-0.072 0.935-0.216s0.431-0.288 0.575-0.503c0.144-0.18 0.216-0.395 0.288-0.611 0.036-0.18 0.072-0.36 0.072-0.539z"></path>
<path fill="#808080" d="M126.49 27.613c0 0.503-0.144 0.971-0.467 1.402s-0.755 0.791-1.294 1.079c-0.539 0.288-1.187 0.539-1.906 0.719s-1.51 0.252-2.337 0.252c-0.827 0-1.618-0.072-2.373-0.252-0.719-0.18-1.366-0.395-1.906-0.719-0.539-0.288-0.971-0.647-1.258-1.079-0.324-0.431-0.467-0.899-0.467-1.402s0.144-1.007 0.431-1.438c0.288-0.431 0.719-0.791 1.258-1.115s1.151-0.539 1.906-0.719c0.719-0.18 1.546-0.252 2.409-0.252 0.899 0 1.69 0.072 2.445 0.252 0.719 0.18 1.366 0.431 1.906 0.719 0.539 0.324 0.935 0.683 1.222 1.115s0.431 0.899 0.431 1.438zM122.355 27.506c0-0.18-0.036-0.395-0.072-0.611s-0.144-0.431-0.252-0.611c-0.144-0.18-0.324-0.324-0.575-0.467-0.252-0.108-0.575-0.18-1.007-0.18-0.395 0-0.683 0.072-0.935 0.18-0.216 0.144-0.431 0.288-0.539 0.467-0.144 0.18-0.216 0.395-0.288 0.611-0.036 0.216-0.072 0.395-0.072 0.575s0.036 0.395 0.072 0.611c0.036 0.216 0.144 0.431 0.288 0.611s0.324 0.36 0.575 0.503c0.252 0.144 0.575 0.18 0.935 0.18 0.395 0 0.683-0.072 0.935-0.216s0.431-0.288 0.575-0.503c0.144-0.18 0.216-0.395 0.288-0.611 0.036-0.18 0.072-0.36 0.072-0.539z"></path>
<path fill="#808080" d="M139.254 27.613c0 0.503-0.144 0.971-0.467 1.402s-0.755 0.791-1.294 1.079c-0.539 0.288-1.187 0.539-1.906 0.719s-1.51 0.252-2.337 0.252c-0.827 0-1.618-0.072-2.373-0.252-0.719-0.18-1.366-0.395-1.906-0.719-0.539-0.288-0.971-0.647-1.258-1.079-0.324-0.431-0.467-0.899-0.467-1.402s0.144-1.007 0.431-1.438c0.288-0.431 0.719-0.791 1.258-1.115s1.151-0.539 1.906-0.719c0.719-0.18 1.546-0.252 2.409-0.252 0.899 0 1.69 0.072 2.445 0.252 0.719 0.18 1.366 0.431 1.906 0.719 0.539 0.324 0.935 0.683 1.222 1.115s0.431 0.899 0.431 1.438zM135.119 27.506c0-0.18-0.036-0.395-0.072-0.611s-0.144-0.431-0.252-0.611c-0.144-0.18-0.324-0.324-0.575-0.467-0.252-0.108-0.575-0.18-1.007-0.18-0.395 0-0.683 0.072-0.935 0.18-0.216 0.144-0.431 0.288-0.539 0.467-0.144 0.18-0.216 0.395-0.288 0.611-0.036 0.216-0.072 0.395-0.072 0.575s0.036 0.395 0.072 0.611c0.036 0.216 0.144 0.431 0.288 0.611s0.324 0.36 0.575 0.503c0.252 0.144 0.575 0.18 0.935 0.18 0.395 0 0.683-0.072 0.935-0.216s0.431-0.288 0.575-0.503c0.144-0.18 0.216-0.395 0.288-0.611 0.036-0.18 0.072-0.36 0.072-0.539z"></path>
<path fill="#808080" d="M47.245 29.375c0 0.539-0.216 0.971-0.683 1.258s-1.115 0.431-1.978 0.431c-0.503 0-0.935-0.036-1.366-0.108-0.611-0.108-1.187-0.395-1.474-0.899-0.18-0.324-0.288-1.151-0.324-1.294 0-0.144-0.18-0.611-0.252-0.647h-1.618v1.151h1.366v1.69h-6.364v-1.69h1.546v-3.38h-1.546v-1.654h7.622c0.467 0 0.935 0.036 1.366 0.108s0.827 0.18 1.151 0.324c0.324 0.144 0.575 0.36 0.791 0.575 0.216 0.252 0.288 0.503 0.288 0.863 0 0.288-0.072 0.791-0.539 1.187-0.288 0.252-1.079 0.575-1.474 0.503 0.18 0.036 0.395 0.072 0.647 0.252 0.575 0.395 0.719 1.438 0.971 1.582 0.072 0.036 0.144 0.072 0.252 0.072s0.216-0.036 0.252-0.072c0.072-0.072 0.108-0.108 0.144-0.216 0.036-0.072 0.036-0.18 0.036-0.252s0-0.144 0-0.18h1.115c0.036 0.072 0.072 0.216 0.072 0.395zM42.211 26.463c0-0.18-0.108-0.324-0.288-0.431s-0.431-0.18-0.719-0.18h-1.546v1.222h1.474c0.324 0 0.575-0.036 0.791-0.144 0.18-0.108 0.288-0.252 0.288-0.467z"></path>
<path fill="#808080" d="M55.73 27.218v-1.438h-1.582v3.452c0.288 0 1.258 0 1.546 0v1.654h-6.544v-1.654h1.546v-3.452h-1.582v1.438h-2.553v-3.056h11.793v3.056h-2.625z"></path>
<path fill="#808080" d="M59.398 30.885v-1.654h1.654v-3.38h-1.654v-1.69h6.796v1.69h-1.69v3.38h1.69v1.654z"></path>
<path fill="#808080" d="M78.993 25.852v5.070h-4.458l-3.811-4.243v2.589h1.618c-0.036 0.288 0 1.402 0 1.654h-5.142v-1.654h1.546v-3.38h-1.546v-1.654h6.472l3.452 4.063v-2.409h-1.546v-1.654h4.818v1.654h-1.402z"></path>
<path fill="#808080" d="M91.865 28.189v2.733h-2.948v-0.719c-0.252 0.144-0.467 0.288-0.683 0.395s-0.467 0.18-0.755 0.252c-0.288 0.072-0.575 0.108-0.863 0.144-0.324 0.036-0.647 0.036-1.043 0.036-0.791 0-1.51-0.072-2.157-0.252-0.611-0.18-1.151-0.431-1.582-0.719-0.431-0.324-0.755-0.683-0.971-1.079-0.216-0.431-0.324-0.863-0.324-1.366 0-0.467 0.108-0.899 0.36-1.33s0.611-0.791 1.043-1.151c0.467-0.324 1.007-0.611 1.618-0.791 0.647-0.216 1.33-0.288 2.085-0.288 0.719 0 1.33 0.072 1.834 0.216s0.935 0.395 1.294 0.791v-0.863h2.984v2.553h-2.948c-0.18-0.36-0.467-0.611-0.791-0.755s-0.791-0.252-1.33-0.252c-0.431 0-0.755 0.072-1.043 0.18s-0.503 0.252-0.683 0.467c-0.18 0.18-0.288 0.395-0.36 0.611s-0.108 0.467-0.108 0.683c0 0.216 0.036 0.467 0.108 0.683s0.216 0.431 0.395 0.611c0.18 0.18 0.395 0.324 0.719 0.431 0.288 0.108 0.647 0.18 1.079 0.18 0.36 0 0.683-0.036 0.935-0.108s0.467-0.144 0.611-0.252c0.144-0.108 0.288-0.252 0.36-0.431s0.144-0.36 0.18-0.539h-1.366v-1.007h5.537v1.007h-1.187z"></path>
<path fill="#808080" d="M112.431 28.189v2.733h-2.912v-0.719c-0.252 0.144-0.467 0.288-0.683 0.395s-0.467 0.18-0.755 0.252c-0.288 0.072-0.575 0.108-0.863 0.144-0.324 0.036-0.647 0.036-1.043 0.036-0.791 0-1.51-0.072-2.157-0.252-0.611-0.18-1.151-0.431-1.582-0.719-0.431-0.324-0.755-0.683-0.971-1.079-0.216-0.431-0.324-0.863-0.324-1.366 0-0.467 0.108-0.899 0.36-1.33s0.611-0.791 1.043-1.151c0.467-0.324 1.007-0.611 1.618-0.791 0.647-0.216 1.33-0.288 2.085-0.288 0.719 0 1.33 0.072 1.834 0.216s0.935 0.395 1.294 0.791v-0.863h2.984v2.553h-2.984c-0.18-0.36-0.467-0.611-0.791-0.755s-0.791-0.252-1.33-0.252c-0.431 0-0.755 0.072-1.043 0.18s-0.503 0.252-0.683 0.467c-0.18 0.18-0.288 0.395-0.36 0.611s-0.108 0.467-0.108 0.683c0 0.216 0.036 0.467 0.108 0.683s0.216 0.431 0.395 0.611c0.18 0.18 0.395 0.324 0.719 0.431 0.288 0.108 0.647 0.18 1.079 0.18 0.36 0 0.683-0.036 0.935-0.108s0.467-0.144 0.611-0.252c0.144-0.108 0.288-0.252 0.36-0.431s0.144-0.36 0.18-0.539h-1.366v-1.007h5.537v1.007h-1.187z"></path>
<path fill="#808080" d="M152.126 27.649c0 0.503-0.144 0.935-0.431 1.33s-0.683 0.755-1.187 1.043c-0.503 0.288-1.079 0.503-1.762 0.647s-1.366 0.252-2.121 0.252h-6.939v-1.654h1.546v-3.38h-1.546v-1.654h7.047c0.791 0 1.546 0.072 2.193 0.252 0.683 0.18 1.222 0.431 1.726 0.719 0.467 0.324 0.827 0.683 1.115 1.115 0.252 0.36 0.36 0.827 0.36 1.33zM148.207 27.542c0-0.216-0.036-0.395-0.108-0.611s-0.18-0.395-0.36-0.539c-0.18-0.144-0.36-0.288-0.647-0.395-0.252-0.108-0.575-0.144-0.971-0.144h-1.51v3.38h1.474c0.395 0 0.755-0.036 1.007-0.144s0.467-0.216 0.647-0.36c0.144-0.144 0.252-0.324 0.324-0.539 0.108-0.216 0.144-0.431 0.144-0.647z"></path>
<path fill="#808080" d="M211.056 8.521c0 0-2.912 0-6.688 0.503-2.697 0.36-5.825 0.971-8.629 2.013v-5.465h13.231c0 0 6.652-0.036 11.506 2.373h7.946v-6.831h-51.416v16.575h16.36c0 0 3.955-3.883 10.966-3.955 0.036 0 0.108 0 0.144 0 7.587 0 9.6 2.373 9.6 5.106 0 1.115-0.144 6.112-9.384 6.112-0.144 0-0.252 0-0.395 0-8.881-0.144-10.535-4.746-10.535-4.746h-16.719c0 0 1.87 10.858 27.29 11.613 0.899 0.036 1.798 0.036 2.733 0.036 0 0 24.593 0.072 24.593-12.836 0.036 0.036 0.827-10.499-20.602-10.499z"></path>
<path fill="#808080" d="M65.079 20.602v-4.818h6.328v-9.78h-6.328v-4.818h28.656v4.818h-6.4v9.78h6.4v4.818z"></path>
<path fill="#808080" d="M159.209 14.418v6.867h-10.607l-1.258-3.2c-3.128 1.402-9.276 3.596-20.207 3.596-3.631 0-6.867-0.324-9.744-0.827-12.333-2.157-13.195-7.083-13.195-9.708 0-3.056 0.647-7.982 13.879-10.247 2.912-0.503 6.076-0.683 9.528-0.683 3.272 0 6.040 0.396 8.378 0.719 3.667 0.503 5.933 1.187 8.845 1.834l1.438-1.546h12.944v6.76h-16.144c-1.187-0.611-3.344-1.366-4.89-1.87-1.546-0.467-3.56-0.719-6.076-0.719-1.906 0-3.488 0.18-4.782 0.539s-2.337 0.827-3.128 1.402c-0.791 0.575-1.366 1.187-1.69 1.906-0.36 0.683-0.503 1.366-0.503 2.049 0 0.719 0.18 1.402 0.539 2.085s0.971 1.294 1.762 1.834c0.791 0.539 1.87 0.971 3.2 1.294s2.948 0.503 4.89 0.503c1.654 0 3.524-0.18 4.746-0.431 1.906-0.395 3.811-1.402 4.602-2.121h-5.789v-4.638h26.751v4.566h-3.488z"></path>
<path fill="#808080" d="M52.854 15.425c0 2.265-1.798 4.351-7.658 4.998-2.085 0.216-2.769 0.216-3.955 0.252h-41.24v-4.854h5.861v-9.78h-5.861v-4.818h41.708c1.87 0 6.436 0 8.378 1.187 2.013 1.222 2.193 2.984 2.193 3.883 0 0.611-0.252 2.984-3.2 3.847-1.474 0.431-2.589 0.647-2.804 0.683 0.216 0.036 1.978 0.216 3.416 0.503 1.618 0.324 3.164 1.906 3.164 4.099zM22.4 5.969v3.236h8.989c1.115 0 2.049-0.072 2.373-0.719s0.252-1.474-0.036-1.942c-0.324-0.431-1.222-0.611-2.013-0.575h-9.312zM22.4 12.009v3.236h8.989c1.115 0 2.049-0.072 2.373-0.719s0.252-1.474-0.036-1.942c-0.324-0.431-1.222-0.611-2.013-0.575h-9.312z"></path>
</svg>
