<!-- Generated by IcoMoon.io -->
<svg version="1.1" xmlns="http://www.w3.org/2000/svg" width="40" height="32" viewBox="0 0 40 32">
<title>big5-logo-square</title>
<path fill="#808080" d="M4.506 26.612c0 0.163-0.033 0.294-0.131 0.392-0.098 0.131-0.196 0.229-0.359 0.327s-0.327 0.163-0.522 0.196c-0.196 0.033-0.425 0.065-0.653 0.065-0.261 0-0.49-0.033-0.718-0.065s-0.457-0.098-0.653-0.196c-0.033 0-0.065-0.033-0.098-0.033l-0.065-0.033-0.098 0.294h-0.98v-0.947h0.751c0.131 0.065 0.686 0.261 0.849 0.294 0.131 0.033 0.294 0.098 0.457 0.098 0.163 0.033 0.327 0.033 0.49 0.033 0.065 0 0.131 0 0.163 0 0.065 0 0.131 0 0.163-0.033 0.065 0 0.098-0.033 0.131-0.065s0.065-0.065 0.065-0.098c0-0.065-0.033-0.098-0.131-0.163-0.098-0.033-0.784-0.065-1.437-0.131-0.425 0-0.784-0.098-1.11-0.327-0.229-0.163-0.327-0.359-0.327-0.686 0-0.163 0.033-0.294 0.131-0.424 0.098-0.098 0.196-0.196 0.359-0.261 0.196-0.098 0.686-0.196 1.012-0.196s0.62 0.033 0.882 0.098c0.261 0.065 0.457 0.163 0.62 0.261l0.065-0.294h0.947v0.849h-0.784c-0.163-0.065-0.359-0.131-0.686-0.229-0.261-0.065-0.522-0.098-0.784-0.098-0.392 0-0.588 0.098-0.588 0.196 0 0.065 0.033 0.098 0.131 0.131s0.653 0.065 0.849 0.098c0.196 0 0.947 0.065 1.143 0.098s0.359 0.098 0.49 0.163c0.327 0.163 0.457 0.49 0.425 0.686z"></path>
<path fill="#808080" d="M9.502 25.535c0 0.163-0.033 0.261-0.131 0.392-0.098 0.098-0.196 0.196-0.359 0.261-0.131 0.065-0.327 0.098-0.522 0.131s-0.392 0.033-0.588 0.033h-1.045v0.49h0.653v0.718h-2.743v-0.718h0.62v-1.437h-0.62v-0.718h3.2c0.196 0 0.392 0.033 0.588 0.065s0.359 0.098 0.49 0.163c0.131 0.065 0.261 0.163 0.327 0.261s0.131 0.229 0.131 0.359zM7.967 25.665c0-0.065-0.033-0.131-0.131-0.196-0.098-0.033-0.196-0.065-0.294-0.065h-0.653v0.522h0.62c0.131 0 0.261-0.033 0.359-0.065 0.033-0.033 0.098-0.098 0.098-0.196z"></path>
<path fill="#808080" d="M14.694 26.155c0 0.229-0.065 0.424-0.196 0.588s-0.327 0.327-0.555 0.457c-0.229 0.131-0.49 0.229-0.816 0.294-0.294 0.065-0.653 0.098-0.98 0.098-0.359 0-0.686-0.033-1.012-0.098-0.294-0.065-0.588-0.163-0.816-0.294s-0.392-0.294-0.522-0.457c-0.131-0.163-0.196-0.392-0.196-0.588 0-0.229 0.065-0.424 0.196-0.62s0.294-0.327 0.522-0.457c0.229-0.131 0.49-0.229 0.816-0.294 0.294-0.065 0.653-0.098 1.012-0.098s0.718 0.033 1.045 0.098c0.327 0.065 0.588 0.163 0.816 0.327 0.229 0.131 0.392 0.294 0.522 0.49 0.098 0.131 0.163 0.327 0.163 0.555zM12.963 26.122c0-0.065 0-0.163-0.033-0.261s-0.065-0.163-0.098-0.261c-0.065-0.065-0.131-0.131-0.229-0.196s-0.261-0.065-0.425-0.065c-0.163 0-0.294 0.033-0.392 0.065-0.098 0.065-0.163 0.131-0.229 0.196s-0.098 0.163-0.131 0.261c-0.033 0.098-0.033 0.163-0.033 0.261 0 0.065 0 0.163 0.033 0.261s0.065 0.196 0.131 0.261c0.065 0.098 0.131 0.163 0.229 0.196 0.098 0.065 0.229 0.098 0.392 0.098s0.294-0.033 0.392-0.098c0.098-0.065 0.163-0.131 0.229-0.196 0.065-0.098 0.098-0.163 0.131-0.261 0-0.098 0.033-0.196 0.033-0.261z"></path>
<path fill="#808080" d="M20.212 26.906c0 0.229-0.098 0.392-0.294 0.522s-0.457 0.163-0.849 0.163c-0.196 0-0.392 0-0.588-0.033-0.261-0.033-0.522-0.163-0.62-0.392-0.065-0.131-0.131-0.49-0.131-0.555s-0.065-0.261-0.098-0.261h-0.686v0.49h0.588v0.718h-2.678v-0.718h0.653v-1.437h-0.653v-0.718h3.233c0.196 0 0.392 0 0.588 0.033s0.359 0.065 0.49 0.131c0.131 0.065 0.261 0.163 0.327 0.261 0.098 0.098 0.131 0.229 0.131 0.359s-0.033 0.327-0.229 0.522c-0.131 0.131-0.457 0.261-0.62 0.229 0.065 0 0.163 0.033 0.261 0.098 0.261 0.163 0.294 0.588 0.424 0.653 0.033 0.033 0.065 0.033 0.098 0.033s0.098 0 0.098-0.033c0.033-0.033 0.033-0.065 0.065-0.098 0-0.033 0.033-0.065 0.033-0.098s0-0.065 0-0.065h0.457c0 0.065 0 0.131 0 0.196zM18.090 25.665c0-0.065-0.033-0.131-0.131-0.196-0.065-0.033-0.196-0.065-0.294-0.065h-0.653v0.522h0.62c0.131 0 0.261-0.033 0.327-0.065 0.098-0.033 0.131-0.098 0.131-0.196z"></path>
<path fill="#808080" d="M23.804 25.992v-0.62h-0.686v1.469c0.131 0 0.522 0 0.653 0v0.718h-2.743v-0.718h0.653v-1.469h-0.686v0.62h-1.078v-1.306h4.996v1.306h-1.11z"></path>
<path fill="#808080" d="M25.371 27.559v-0.718h0.686v-1.437h-0.686v-0.686h2.873v0.686h-0.718v1.437h0.718v0.718z"></path>
<path fill="#808080" d="M33.633 25.404v2.122h-1.894l-1.6-1.796v1.078h0.686c0 0.131 0 0.588 0 0.718h-2.188v-0.718h0.653v-1.437h-0.653v-0.718h2.743l1.469 1.731v-1.012h-0.653v-0.718h2.025v0.718h-0.588z"></path>
<path fill="#808080" d="M39.086 26.416v1.143h-1.241v-0.294c-0.098 0.065-0.196 0.131-0.294 0.163s-0.196 0.065-0.327 0.098c-0.098 0.033-0.229 0.033-0.359 0.065-0.131 0-0.294 0.033-0.457 0.033-0.327 0-0.653-0.033-0.914-0.098s-0.49-0.163-0.686-0.294c-0.196-0.131-0.327-0.294-0.425-0.457s-0.131-0.359-0.131-0.555c0-0.196 0.065-0.392 0.163-0.555 0.098-0.196 0.261-0.327 0.457-0.49 0.196-0.131 0.425-0.261 0.686-0.327 0.261-0.098 0.555-0.131 0.882-0.131 0.294 0 0.555 0.033 0.784 0.098s0.392 0.163 0.555 0.327v-0.359h1.273v1.012h-1.273c-0.065-0.131-0.196-0.261-0.327-0.327s-0.327-0.098-0.555-0.098c-0.163 0-0.327 0.033-0.457 0.065s-0.229 0.098-0.294 0.196c-0.065 0.065-0.131 0.163-0.163 0.261s-0.033 0.196-0.033 0.294c0 0.098 0.033 0.196 0.065 0.294s0.098 0.163 0.163 0.261c0.065 0.065 0.163 0.131 0.294 0.163s0.261 0.065 0.457 0.065c0.163 0 0.294 0 0.392-0.033s0.196-0.065 0.261-0.098c0.065-0.033 0.131-0.098 0.163-0.163s0.065-0.131 0.065-0.229h-0.588v-0.424h2.351v0.424h-0.49z"></path>
<path fill="#808080" d="M33.045 30.89c0 0.163-0.033 0.294-0.131 0.392-0.098 0.131-0.196 0.229-0.359 0.327s-0.327 0.163-0.522 0.196c-0.196 0.033-0.424 0.065-0.653 0.065-0.261 0-0.49-0.033-0.718-0.065s-0.457-0.098-0.653-0.196c-0.033 0-0.065-0.033-0.098-0.033l-0.065-0.033-0.098 0.294h-0.98v-0.947h0.718c0.131 0.065 0.686 0.261 0.849 0.294 0.131 0.065 0.294 0.098 0.457 0.131s0.327 0.033 0.49 0.033c0.065 0 0.131 0 0.163 0 0.065 0 0.131 0 0.163-0.033 0.065 0 0.098-0.033 0.131-0.065s0.065-0.065 0.065-0.098c0-0.065-0.033-0.098-0.131-0.163-0.098-0.033-0.555-0.033-0.686-0.065-0.131 0-0.131 0-0.751-0.065-0.424-0.033-0.784-0.131-1.11-0.327-0.229-0.163-0.359-0.392-0.327-0.718 0-0.163 0.033-0.294 0.131-0.424 0.098-0.098 0.196-0.196 0.359-0.261 0.131-0.065 0.294-0.131 0.49-0.163s0.359-0.033 0.555-0.033c0.327 0 0.62 0.033 0.882 0.098s0.457 0.163 0.62 0.261l0.065-0.294h0.947v0.849h-0.784c-0.196-0.131-0.424-0.131-0.686-0.229-0.261-0.065-0.522-0.098-0.784-0.098-0.065 0-0.098 0-0.196 0-0.065 0-0.131 0-0.196 0.033-0.065 0-0.098 0.033-0.163 0.065-0.033 0.033-0.065 0.065-0.065 0.098 0 0.065 0.033 0.131 0.131 0.163s0.196 0.065 0.359 0.065c0.131 0.033 0.327 0 0.49 0 0.196 0 0.947 0.033 1.143 0.065s0.359 0.098 0.49 0.163c0.359 0.196 0.457 0.522 0.457 0.718z"></path>
<path fill="#808080" d="M17.502 30.433c0 0.229-0.065 0.424-0.196 0.588s-0.327 0.327-0.555 0.457c-0.229 0.131-0.49 0.229-0.816 0.294-0.294 0.065-0.653 0.098-0.98 0.098-0.359 0-0.686-0.033-1.012-0.098-0.294-0.065-0.588-0.163-0.816-0.294s-0.392-0.294-0.522-0.457c-0.131-0.163-0.196-0.392-0.196-0.588 0-0.229 0.065-0.424 0.196-0.62s0.294-0.327 0.522-0.457c0.229-0.131 0.49-0.229 0.816-0.294 0.294-0.065 0.653-0.098 1.012-0.098s0.718 0.033 1.045 0.098c0.327 0.065 0.588 0.163 0.816 0.294s0.392 0.294 0.522 0.49c0.098 0.163 0.163 0.359 0.163 0.588zM15.739 30.4c0-0.065 0-0.163-0.033-0.261s-0.065-0.163-0.098-0.261c-0.065-0.065-0.131-0.131-0.229-0.196s-0.261-0.065-0.425-0.065c-0.163 0-0.294 0.033-0.392 0.065-0.098 0.065-0.163 0.131-0.229 0.196s-0.098 0.163-0.131 0.261c-0.033 0.098-0.033 0.163-0.033 0.261 0 0.065 0 0.163 0.033 0.261s0.065 0.196 0.131 0.261c0.065 0.098 0.131 0.163 0.229 0.196 0.098 0.065 0.229 0.098 0.392 0.098s0.294-0.033 0.392-0.098c0.098-0.065 0.163-0.131 0.229-0.196 0.065-0.098 0.098-0.163 0.131-0.261s0.033-0.196 0.033-0.261z"></path>
<path fill="#808080" d="M22.89 30.433c0 0.229-0.065 0.424-0.196 0.588s-0.327 0.327-0.555 0.457c-0.229 0.131-0.49 0.229-0.816 0.294-0.294 0.065-0.653 0.098-0.98 0.098-0.359 0-0.686-0.033-1.012-0.098-0.294-0.065-0.588-0.163-0.816-0.294s-0.392-0.294-0.522-0.457c-0.131-0.163-0.196-0.392-0.196-0.588 0-0.229 0.065-0.424 0.196-0.62s0.294-0.327 0.522-0.457c0.229-0.131 0.49-0.229 0.816-0.294 0.294-0.065 0.653-0.098 1.012-0.098s0.718 0.033 1.045 0.098c0.327 0.065 0.588 0.163 0.816 0.294s0.392 0.294 0.522 0.49c0.131 0.163 0.163 0.359 0.163 0.588zM21.159 30.4c0-0.065 0-0.163-0.033-0.261s-0.065-0.163-0.098-0.261c-0.065-0.065-0.131-0.131-0.229-0.196s-0.261-0.065-0.424-0.065c-0.163 0-0.294 0.033-0.392 0.065-0.098 0.065-0.163 0.131-0.229 0.196s-0.098 0.163-0.131 0.261c-0.033 0.098-0.033 0.196-0.033 0.261s0 0.163 0.033 0.261c0.033 0.098 0.065 0.196 0.131 0.261 0.065 0.098 0.131 0.163 0.229 0.196 0.098 0.065 0.229 0.098 0.392 0.098s0.294-0.033 0.392-0.098c0.098-0.065 0.163-0.131 0.229-0.196 0.065-0.098 0.098-0.163 0.131-0.261s0.033-0.196 0.033-0.261z"></path>
<path fill="#808080" d="M11.559 30.694v1.143h-1.241v-0.294c-0.098 0.065-0.196 0.131-0.294 0.163s-0.196 0.065-0.327 0.098c-0.098 0.033-0.229 0.033-0.359 0.065-0.131 0-0.294 0.033-0.457 0.033-0.327 0-0.653-0.033-0.914-0.098s-0.49-0.163-0.686-0.294c-0.196-0.131-0.327-0.294-0.425-0.457s-0.131-0.359-0.131-0.555c0-0.196 0.065-0.392 0.163-0.555 0.098-0.196 0.261-0.327 0.457-0.49 0.196-0.131 0.425-0.261 0.686-0.327s0.555-0.131 0.882-0.131c0.294 0 0.555 0.033 0.784 0.098s0.392 0.163 0.555 0.327v-0.359h1.273v1.078h-1.273c-0.065-0.131-0.196-0.261-0.327-0.327s-0.327-0.098-0.555-0.098c-0.163 0-0.327 0.033-0.457 0.065s-0.229 0.098-0.294 0.196c-0.065 0.065-0.131 0.163-0.163 0.261s-0.033 0.196-0.033 0.294c0 0.098 0.033 0.196 0.065 0.294s0.098 0.163 0.163 0.261c0.065 0.065 0.163 0.131 0.294 0.163s0.261 0.065 0.457 0.065c0.163 0 0.294 0 0.392-0.033s0.196-0.065 0.261-0.098c0.065-0.033 0.131-0.098 0.163-0.163s0.065-0.131 0.065-0.229h-0.588v-0.424h2.351v0.327h-0.49z"></path>
<path fill="#808080" d="M28.343 30.465c0 0.196-0.065 0.392-0.196 0.555s-0.294 0.327-0.49 0.424c-0.229 0.131-0.457 0.229-0.751 0.294s-0.588 0.098-0.914 0.098h-2.939v-0.718h0.653v-1.404h-0.653v-0.718h2.971c0.327 0 0.653 0.033 0.947 0.098s0.522 0.163 0.718 0.294 0.359 0.294 0.457 0.457c0.163 0.196 0.196 0.392 0.196 0.62zM26.678 30.433c0-0.098 0-0.163-0.033-0.261s-0.065-0.163-0.163-0.229c-0.065-0.065-0.163-0.131-0.261-0.163-0.098-0.065-0.261-0.065-0.392-0.065h-0.653v1.437h0.62c0.163 0 0.327-0.033 0.424-0.065s0.196-0.098 0.261-0.163c0.065-0.065 0.098-0.131 0.131-0.229 0.065-0.098 0.065-0.196 0.065-0.261z"></path>
<path fill="#808080" d="M34.090 6.922c0.816 0 1.502 0.62 1.502 1.437s-0.653 1.437-1.502 1.437c-0.816 0-1.502-0.62-1.502-1.437s0.653-1.437 1.502-1.437v0zM34.090 7.151c-0.653 0-1.208 0.555-1.208 1.208 0 0.686 0.555 1.208 1.208 1.208 0.686 0 1.208-0.522 1.208-1.208s-0.555-1.208-1.208-1.208v0zM33.796 9.143h-0.261v-1.6c0.131-0.033 0.261-0.033 0.49-0.033 0.261 0 0.425 0.065 0.522 0.131s0.163 0.163 0.163 0.327c0 0.196-0.163 0.327-0.327 0.392v0c0.163 0.033 0.261 0.163 0.294 0.392 0.033 0.261 0.065 0.327 0.098 0.392h-0.294c-0.033-0.065-0.065-0.196-0.098-0.392s-0.163-0.294-0.359-0.294h-0.196v0.686zM33.796 8.294h0.196c0.229 0 0.425-0.065 0.425-0.261 0-0.131-0.098-0.294-0.425-0.294-0.098 0-0.163 0-0.196 0v0.555z"></path>
<path fill="#808080" d="M22.857 10.678c0 0-1.502 0-3.461 0.261-1.404 0.196-3.004 0.49-4.473 1.045v-2.841h6.857c0 0 3.429-0.033 5.943 1.241h4.114v-3.527h-26.58v8.588h8.457c0 0 2.057-2.024 5.682-2.024h0.065c3.918 0 4.963 1.241 4.963 2.645 0 0.588-0.065 3.167-4.865 3.167-0.065 0-0.131 0-0.196 0-4.604-0.065-5.453-2.449-5.453-2.449h-8.653c0 0 0.98 5.616 14.106 6.008 0.457 0 0.914 0.033 1.404 0.033 0 0 12.702 0.033 12.702-6.629 0.033-0.065 0.457-5.518-10.612-5.518z"></path>
<path fill="#808080" d="M15.935 4.833v-1.175h1.535v-2.416h-1.535v-1.175h7.020v1.175h-1.567v2.416h1.567v1.175z"></path>
<path fill="#808080" d="M38.955 3.298v1.665h-2.58l-0.294-0.784c-0.784 0.327-2.286 0.882-4.963 0.882-0.882 0-1.698-0.065-2.384-0.196-3.037-0.522-3.233-1.731-3.233-2.384 0-0.751 0.163-1.959 3.396-2.514 0.718-0.131 1.469-0.163 2.318-0.163 0.816 0 1.469 0.098 2.057 0.163 0.914 0.131 1.469 0.294 2.155 0.457l0.359-0.392h3.167v1.665h-3.951c-0.294-0.163-0.816-0.327-1.208-0.457s-0.882-0.163-1.469-0.163c-0.457 0-0.849 0.033-1.175 0.131s-0.555 0.196-0.751 0.327c-0.196 0.131-0.327 0.294-0.424 0.457s-0.131 0.327-0.131 0.49c0 0.163 0.033 0.359 0.131 0.522s0.229 0.327 0.424 0.457c0.196 0.131 0.457 0.229 0.784 0.327 0.327 0.065 0.718 0.131 1.208 0.131 0.392 0 0.849-0.033 1.175-0.098 0.457-0.098 0.914-0.359 1.143-0.522h-1.404v-1.11h6.531v1.11h-0.882z"></path>
<path fill="#808080" d="M12.931 3.559c0 0.555-0.425 1.078-1.894 1.208-0.522 0.065-0.686 0.065-0.98 0.065h-10.057v-1.175h1.437v-2.384h-1.437v-1.175h10.22c0.457 0 1.567 0 2.057 0.294s0.522 0.718 0.522 0.947c0 0.163-0.065 0.718-0.784 0.947-0.359 0.098-0.62 0.163-0.686 0.163 0.065 0 0.49 0.065 0.816 0.131 0.425 0.065 0.784 0.457 0.784 0.98zM5.486 1.241v0.784h2.188c0.261 0 0.49-0.033 0.588-0.163 0.065-0.163 0.065-0.359 0-0.457s-0.294-0.163-0.49-0.131l-2.286-0.033zM5.486 2.71v0.784h2.188c0.261 0 0.49-0.033 0.588-0.163 0.065-0.163 0.065-0.359 0-0.457s-0.294-0.163-0.49-0.131l-2.286-0.033z"></path>
</svg>
