<!-- Generated by IcoMoon.io -->
<svg version="1.1" xmlns="http://www.w3.org/2000/svg" width="35" height="32" viewBox="0 0 35 32">
<title>cart</title>
<path fill="#808080" d="M7.893 5.333l-1.493-5.333h-6.4v4.267h3.84l5.12 19.2h21.547l4.693-18.133h-27.307zM27.733 19.2h-16.213l-2.773-10.667h21.547l-2.56 10.667z"></path>
<path fill="#808080" d="M12.587 26.667c-1.493 0-2.56 1.173-2.56 2.667s1.173 2.667 2.56 2.667 2.56-1.173 2.56-2.667c0-1.493-1.173-2.667-2.56-2.667z"></path>
<path fill="#808080" d="M26.453 26.667c-1.493 0-2.56 1.173-2.56 2.667s1.173 2.667 2.56 2.667c1.493 0 2.56-1.173 2.56-2.667 0.107-1.493-1.067-2.667-2.56-2.667z"></path>
</svg>
