<!-- Generated by IcoMoon.io -->
<svg version="1.1" xmlns="http://www.w3.org/2000/svg" width="35" height="32" viewBox="0 0 35 32">
<title>cart-active</title>
<path fill="#808080" d="M31.467 7.573l-3.093 11.627h-16.533l-5.227-19.2h-6.613v4.267h3.947l5.227 19.2h22.080l3.947-15.893z"></path>
<path fill="#808080" d="M12.8 26.667c-1.493 0-2.667 1.173-2.667 2.667s1.173 2.667 2.667 2.667 2.667-1.173 2.667-2.667c0-1.493-1.173-2.667-2.667-2.667z"></path>
<path fill="#808080" d="M27.093 26.667c-1.493 0-2.667 1.173-2.667 2.667s1.173 2.667 2.667 2.667c1.493 0 2.667-1.173 2.667-2.667s-1.28-2.667-2.667-2.667z"></path>
</svg>
