<!-- Generated by IcoMoon.io -->
<svg version="1.1" xmlns="http://www.w3.org/2000/svg" width="32" height="32" viewBox="0 0 32 32">
<title>close</title>
<path fill="#444" d="M24.858 7.142c-2.267-2.267-5.399-3.669-8.858-3.669-6.919 0-12.528 5.609-12.528 12.528 0 3.459 1.402 6.591 3.669 8.858s5.399 3.669 8.858 3.669c6.919 0 12.528-5.609 12.528-12.528 0-3.46-1.402-6.591-3.669-8.858zM23.77 23.77c-1.972 1.898-4.658 3.067-7.617 3.067-6.069 0-10.99-4.92-10.99-10.99 0-2.959 1.169-5.645 3.071-7.62 1.969-1.895 4.655-3.064 7.613-3.064 6.069 0 10.99 4.92 10.99 10.99 0 2.959-1.169 5.645-3.071 7.62z"></path>
<path fill="#444" d="M20.288 10.106l-4.288 4.283-4.288-4.283-1.605 1.605 4.283 4.288-4.283 4.288 1.605 1.605 4.288-4.283 4.288 4.283 1.605-1.605-4.288-4.288 4.288-4.288-1.605-1.605z"></path>
</svg>
