<!-- Generated by IcoMoon.io -->
<svg version="1.1" xmlns="http://www.w3.org/2000/svg" width="32" height="32" viewBox="0 0 32 32">
<title>facebook</title>
<path fill="#808080" d="M32 16c0 8.837-7.163 16-16 16s-16-7.163-16-16c0-8.837 7.163-16 16-16s16 7.163 16 16z"></path>
<path fill="#fff" d="M23.76 7.28h-15.52c-0.56 0-0.96 0.4-0.96 0.96v15.6c0 0.56 0.4 0.96 0.96 0.96h8.4v-6.8h-2.32v-2.64h2.32v-1.92c0-2.24 1.36-3.52 3.36-3.52 0.96 0 1.76 0.080 2 0.080v2.4h-1.36c-1.12 0-1.28 0.56-1.28 1.28v1.68h2.64l-0.4 2.64h-2.24v6.8h4.48c0.56 0 0.96-0.4 0.96-0.96v-15.6c-0.080-0.56-0.48-0.96-1.040-0.96z"></path>
</svg>
