<!-- Generated by IcoMoon.io -->
<svg version="1.1" xmlns="http://www.w3.org/2000/svg" width="32" height="32" viewBox="0 0 32 32">
<title>info</title>
<path fill="#d7d7d7" d="M16 4.261c6.484 0 11.739 5.256 11.739 11.739s-5.256 11.739-11.739 11.739c-6.484 0-11.739-5.256-11.739-11.739s5.256-11.739 11.739-11.739zM16 3.75c-6.766 0-12.25 5.484-12.25 12.25s5.484 12.25 12.25 12.25c6.766 0 12.25-5.484 12.25-12.25s-5.484-12.25-12.25-12.25v0z"></path>
<path fill="#d7d7d7" d="M17.327 18.685h-3.328v-0.337c-0.001-0.038-0.002-0.083-0.002-0.128 0-0.448 0.072-0.88 0.204-1.284 0.13-0.343 0.324-0.663 0.566-0.939 0.525-0.534 1.085-1.035 1.674-1.499 0.41-0.261 0.673-0.639 0.746-1.082 0.002-0.026 0.003-0.046 0.003-0.066 0-0.271-0.11-0.516-0.287-0.693-0.208-0.168-0.475-0.269-0.766-0.269-0.034 0-0.068 0.001-0.101 0.004-0.005-0.001-0.016-0.001-0.028-0.001-0.387 0-0.737 0.158-0.989 0.414-0.309 0.394-0.5 0.893-0.511 1.437l-3.399-0.416c0.053-1.187 0.546-2.25 1.318-3.038q1.189-1.143 3.639-1.143c0.070-0.003 0.151-0.005 0.234-0.005 1.047 0 2.025 0.298 2.852 0.815 0.942 0.579 1.575 1.627 1.575 2.824 0 0.013-0 0.026-0 0.039-0.003 0.531-0.157 1.028-0.42 1.449-0.462 0.648-1.020 1.207-1.656 1.663-0.46 0.326-0.831 0.7-1.129 1.128-0.131 0.286-0.201 0.603-0.201 0.936 0 0.068 0.003 0.134 0.008 0.2zM13.882 19.573h3.573v3.144h-3.573v-3.144z"></path>
</svg>
