<!-- Generated by IcoMoon.io -->
<svg version="1.1" xmlns="http://www.w3.org/2000/svg" width="32" height="32" viewBox="0 0 32 32">
<title>instagram</title>
<path fill="#808080" d="M32 16c0 8.837-7.163 16-16 16s-16-7.163-16-16c0-8.837 7.163-16 16-16s16 7.163 16 16z"></path>
<path fill="#fff" d="M22.88 14.64h-1.52c0.080 0.48 0.16 0.88 0.16 1.36 0 3.040-2.48 5.52-5.52 5.52s-5.52-2.48-5.52-5.52c0-0.48 0.080-0.96 0.16-1.36h-1.6v7.6c0 0.4 0.32 0.72 0.72 0.72h12.4c0.4 0 0.72-0.32 0.72-0.72v-7.6zM22.88 9.76c0-0.4-0.32-0.72-0.72-0.72h-2.080c-0.4 0-0.72 0.32-0.72 0.72v2.080c0 0.4 0.32 0.72 0.72 0.72h2.080c0.4 0 0.72-0.32 0.72-0.72v-2.080zM16 12.56c-1.92 0-3.44 1.52-3.44 3.44s1.52 3.44 3.44 3.44c1.92 0 3.44-1.52 3.44-3.44s-1.52-3.44-3.44-3.44zM22.88 24.96h-13.76c-1.12 0-2.080-0.96-2.080-2.080v-13.76c0-1.12 0.96-2.080 2.080-2.080h13.76c1.12 0 2.080 0.96 2.080 2.080v13.76c0 1.12-0.96 2.080-2.080 2.080z"></path>
</svg>
