<!-- Generated by IcoMoon.io -->
<svg version="1.1" xmlns="http://www.w3.org/2000/svg" width="32" height="32" viewBox="0 0 32 32">
<title>lock</title>
<path fill="#444" d="M24.237 12.607l-1.387-0.34c0.060-0.059 0.111-0.127 0.151-0.202l0.002-2.418c0-3.113-3.393-5.647-7-5.647s-7 2.533-7 5.647v2.513l-1.387 0.407c-0.746 0.182-1.292 0.844-1.292 1.635 0 0.070 0.004 0.139 0.013 0.207l-0.001 11.772c-0.001 0.020-0.001 0.043-0.001 0.067 0 0.964 0.778 1.746 1.741 1.753h15.927c0.926-0.012 1.671-0.766 1.671-1.693 0-0.045-0.002-0.089-0.005-0.133l0-11.774c0.001-0.022 0.002-0.048 0.002-0.075 0-0.854-0.614-1.566-1.424-1.717zM13.003 9.687c0-1.333 1.333-2.44 3.040-2.453 0.506 0.002 0.987 0.107 1.423 0.296 0.875 0.325 1.509 1.164 1.537 2.154l0 1.843c-0.826-0.124-1.78-0.195-2.75-0.195-0.095 0-0.19 0.001-0.284 0.002-0.12-0.003-0.278-0.005-0.436-0.005-0.892 0-1.77 0.058-2.631 0.169l0.102-1.811zM17.003 20.48v2.313c0 0.213 0.127 0.54-0.093 0.54h-1.733c-0.22 0-0.173-0.327-0.173-0.54v-2.313c-0.722-0.415-1.226-1.139-1.332-1.987-0.007-0.073-0.009-0.143-0.009-0.213 0-1.356 1.094-2.456 2.447-2.467 1.286 0.024 2.318 1.071 2.318 2.36 0 0.049-0.002 0.098-0.005 0.147-0.103 0.924-0.642 1.711-1.406 2.153zM21.763 12.047v0l-0.047-0.047h0.047v0.040z"></path>
</svg>
