<!-- Generated by IcoMoon.io -->
<svg version="1.1" xmlns="http://www.w3.org/2000/svg" width="32" height="32" viewBox="0 0 32 32">
<title>pinterest</title>
<path fill="#808080" d="M32 16c0 8.837-7.163 16-16 16s-16-7.163-16-16c0-8.837 7.163-16 16-16s16 7.163 16 16z"></path>
<path fill="#fff" d="M22.96 12.96c0 4-2.24 7.040-5.52 7.040-1.12 0-2.16-0.64-2.48-1.28 0 0-0.56 2.4-0.72 2.8-0.48 1.6-1.76 3.2-1.84 3.36-0.080 0.080-0.24 0.080-0.24-0.080 0-0.24-0.4-2.24 0-3.92 0.16-0.8 1.36-5.6 1.36-5.6s-0.32-0.64-0.32-1.6c0-1.52 0.88-2.64 2-2.64 0.96 0 1.36 0.72 1.36 1.52 0 0.96-0.56 2.32-0.88 3.68-0.24 1.12 0.56 2 1.6 2 1.92 0 3.28-2.48 3.28-5.44 0-2.24-1.52-3.92-4.32-3.92-3.12 0-5.040 2.32-5.040 4.96 0 0.88 0.24 1.52 0.64 2 0.16 0.24 0.24 0.32 0.16 0.56-0.080 0.16-0.16 0.64-0.24 0.8-0.080 0.24-0.24 0.32-0.48 0.24-1.44-0.56-2.080-2.16-2.080-3.92 0-2.96 2.48-6.4 7.36-6.4 3.76-0.080 6.4 2.8 6.4 5.84z"></path>
</svg>
