<!-- Generated by IcoMoon.io -->
<svg version="1.1" xmlns="http://www.w3.org/2000/svg" width="32" height="32" viewBox="0 0 32 32">
<title>print</title>
<path fill="#444" d="M10 4h12v7.667h-12v-7.667z"></path>
<path fill="#444" d="M10 19.8v8.2h12v-8.2h-12zM20.933 25.267h-9.867v-1.067h9.8v1.067zM20.933 22.533h-9.867v-1.067h9.8v1.067z"></path>
<path fill="#444" d="M7.8 8.933c-2.133 0.133-3.8 1.867-3.8 4v5.6c0 2.133 1.667 3.933 3.8 4v-4.933h16.333v4.933c2.133-0.133 3.8-1.867 3.8-4v-5.6c0-2.133-1.667-3.933-3.8-4v5.467h-16.333v-5.467z"></path>
</svg>
