<!-- Generated by IcoMoon.io -->
<svg version="1.1" xmlns="http://www.w3.org/2000/svg" width="32" height="32" viewBox="0 0 32 32">
<title>search</title>
<path fill="#808080" d="M26.611 18.695c-0.505 1.347-1.179 2.695-2.189 3.705l7.242 7.242c0.337 0.337 0.337 0.842 0 1.011l-1.011 1.011c-0.337 0.337-0.842 0.337-1.011 0l-7.242-7.242c-1.179 0.842-2.358 1.684-3.705 2.189-1.516 0.505-3.2 0.842-4.884 0.842-3.874 0-7.242-1.516-9.768-4.042-2.526-2.358-4.042-5.895-4.042-9.6s1.516-7.242 4.042-9.768c2.526-2.526 5.895-4.042 9.768-4.042s7.242 1.516 9.768 4.042c2.526 2.526 4.042 5.895 4.042 9.768 0 1.684-0.337 3.368-1.011 4.884v0zM6.232 21.389c2.021 2.021 4.716 3.2 7.579 3.2 3.032 0 5.726-1.179 7.579-3.2 2.021-2.021 3.2-4.716 3.2-7.579 0-3.032-1.179-5.726-3.2-7.579-1.853-2.021-4.547-3.2-7.579-3.2s-5.726 1.179-7.579 3.2c-2.021 1.853-3.2 4.547-3.2 7.579s1.179 5.726 3.2 7.579z"></path>
</svg>
