<!-- Generated by IcoMoon.io -->
<svg version="1.1" xmlns="http://www.w3.org/2000/svg" width="32" height="32" viewBox="0 0 32 32">
<title>twitter</title>
<path fill="#808080" d="M32 16c0 8.837-7.163 16-16 16s-16-7.163-16-16c0-8.837 7.163-16 16-16s16 7.163 16 16z"></path>
<path fill="#fff" d="M24.96 10.48c-0.64 0.32-1.36 0.48-2.080 0.56 0.72-0.48 1.36-1.2 1.6-2-0.72 0.4-1.52 0.72-2.32 0.88-0.64-0.72-1.6-1.2-2.72-1.2-2 0-3.68 1.68-3.68 3.68 0 0.32 0 0.56 0.080 0.8-3.040-0.16-5.76-1.6-7.6-3.84-0.24 0.56-0.48 1.2-0.48 1.84 0 1.28 0.64 2.4 1.6 3.040-0.64 0-1.2-0.16-1.68-0.48 0 0 0 0 0 0.080 0 1.76 1.28 3.28 2.96 3.6-0.24 0.16-0.56 0.16-0.88 0.16-0.24 0-0.48 0-0.72-0.080 0.48 1.44 1.84 2.56 3.44 2.56-1.28 0.96-2.88 1.6-4.56 1.6-0.32 0-0.56 0-0.88-0.080 1.6 1.040 3.52 1.68 5.6 1.68 6.8 0 10.48-5.6 10.48-10.48 0-0.16 0-0.32 0-0.48 0.72-0.48 1.36-1.12 1.84-1.84z"></path>
</svg>
