<!-- Generated by IcoMoon.io -->
<svg version="1.1" xmlns="http://www.w3.org/2000/svg" width="32" height="32" viewBox="0 0 32 32">
<title>wishlist</title>
<path fill="#444" d="M5.236 8.291v16.145c0.145 2.545 2.327 4.655 4.364 4.655 0 0 16.582 0 18.036 0 1.527 0 3.055-0.8 2.982-3.055 0-1.527 0-2.327 0-2.327h-16.145c0 0 0.073 2.327-0.8 3.055-0.873 0.8-1.891 0.873-3.055 0.8s-2.982-0.655-3.055-2.327 0-20.509 0-20.509 12.364 0 15.127 0 3.345 1.164 3.345 2.036v13.091c0 0.945 0.8 1.527 0.8 1.527s1.527 0.582 1.527-1.527v-13.309c0-1.745-1.527-3.636-4.145-3.636-1.527 0-17.745 0-19.927 0s-2.909 2.327-2.909 2.327v3.055h3.855z"></path>
<path fill="#444" d="M18.036 17.527h4.364c0.727 0 1.309 0.509 1.309 1.164s-0.582 1.164-1.309 1.164h-4.364c-0.727 0-1.309-0.509-1.309-1.164 0-0.582 0.582-1.164 1.309-1.164z"></path>
<path fill="#444" d="M18.036 12.945h4.364c0.727 0 1.309 0.509 1.309 1.164s-0.582 1.164-1.309 1.164h-4.364c-0.727 0-1.309-0.509-1.309-1.164s0.582-1.164 1.309-1.164z"></path>
<path fill="#444" d="M18.036 8.291h4.364c0.727 0 1.309 0.509 1.309 1.164s-0.582 1.164-1.309 1.164h-4.364c-0.727 0-1.309-0.509-1.309-1.164 0-0.582 0.582-1.164 1.309-1.164z"></path>
<path fill="#444" d="M14.618 7.564c0 0 0.582 0.436 0.582 0.582 0 0.073-0.218 0.218-0.218 0.291-0.145 0.145-2.909 2.4-3.491 2.909-0.073 0-0.073 0.073-0.145 0.073-0.145 0-0.364-0.218-0.509-0.364-0.582-0.509-1.164-1.018-1.745-1.527 0 0-0.073-0.073-0.073-0.073 0-0.145 0.073-0.145 0.218-0.218 0.073-0.073 0.291-0.218 0.436-0.291 0 0 0.073-0.073 0.145-0.073 0.145 0 0.436 0.364 0.582 0.436 0.291 0.218 0.582 0.509 0.8 0.727 0.073 0 0.073 0.073 0.145 0.073s0.073 0 0.145-0.073c0.8-0.655 2.036-1.673 2.764-2.327 0.073-0.073 0.145-0.145 0.218-0.145s0.073 0 0.145 0z"></path>
<path fill="#444" d="M14.618 12.218c0 0 0.582 0.436 0.582 0.582 0 0.073-0.218 0.218-0.218 0.291-0.145 0.145-2.909 2.4-3.491 2.909-0.073 0-0.073 0.073-0.145 0.073-0.145 0-0.364-0.218-0.509-0.364-0.582-0.509-1.164-1.018-1.745-1.527 0 0-0.073-0.073-0.073-0.073 0-0.145 0.073-0.145 0.218-0.218 0.073-0.073 0.291-0.218 0.436-0.291 0 0 0.073-0.073 0.145-0.073 0.145 0 0.436 0.364 0.582 0.436 0.291 0.218 0.582 0.509 0.8 0.727 0.073 0 0.073 0.073 0.145 0.073s0.073 0 0.145-0.073c0.8-0.655 2.036-1.673 2.764-2.327 0.073-0.073 0.145-0.145 0.218-0.145 0.073-0.073 0.073-0.073 0.145 0z"></path>
<path fill="#444" d="M14.618 16.8c0 0 0.582 0.436 0.582 0.582 0 0.073-0.218 0.218-0.218 0.291-0.145 0.145-2.909 2.4-3.491 2.909-0.073 0-0.073 0.073-0.145 0.073-0.145 0-0.364-0.218-0.509-0.364-0.582-0.509-1.164-1.018-1.745-1.527 0 0-0.073-0.073-0.073-0.073 0-0.145 0.073-0.145 0.218-0.218 0.073-0.073 0.291-0.218 0.436-0.291 0 0 0.073-0.073 0.145-0.073 0.145 0 0.436 0.364 0.582 0.436 0.291 0.218 0.582 0.509 0.8 0.727 0.073 0 0.073 0.073 0.145 0.073s0.073 0 0.145-0.073c0.8-0.655 2.036-1.673 2.764-2.327 0.073-0.073 0.145-0.145 0.218-0.145s0.073 0 0.145 0z"></path>
</svg>
