<svg aria-hidden="true" style="position: absolute; width: 0; height: 0; overflow: hidden;" version="1.1" xmlns="http://www.w3.org/2000/svg" xmlns:xlink="http://www.w3.org/1999/xlink">
<defs>
<symbol id="icon-big5-logo" viewBox="0 0 236 32">
<title>big5-logo</title>
<path fill="#808080" style="fill: var(--color1, #808080)" d="M232.809 1.222c1.582 0 2.876 1.222 2.876 2.769s-1.258 2.769-2.876 2.769c-1.618 0-2.912-1.222-2.912-2.769s1.294-2.769 2.912-2.769v0zM232.773 1.654c-1.294 0-2.337 1.043-2.337 2.337 0 1.33 1.043 2.337 2.337 2.337s2.337-1.043 2.337-2.337-1.007-2.337-2.337-2.337v0zM232.234 5.537h-0.503v-3.092c0.288-0.036 0.539-0.072 0.935-0.072 0.503 0 0.827 0.108 1.007 0.216 0.18 0.144 0.288 0.36 0.288 0.647 0 0.396-0.288 0.647-0.647 0.755v0.036c0.288 0.036 0.467 0.288 0.539 0.755s0.144 0.647 0.216 0.755h-0.539c-0.072-0.108-0.144-0.396-0.216-0.791s-0.288-0.539-0.719-0.539h-0.36v1.33zM232.234 3.883h0.36c0.431 0 0.791-0.144 0.791-0.539 0-0.288-0.216-0.539-0.791-0.539-0.18 0-0.288 0-0.36 0.036v1.043z"></path>
<path fill="#808080" style="fill: var(--color1, #808080)" d="M10.067 28.656c-0.036 0.36-0.108 0.683-0.288 0.971-0.216 0.288-0.467 0.539-0.827 0.755s-0.755 0.36-1.222 0.467c-0.467 0.108-0.971 0.18-1.546 0.18s-1.151-0.036-1.726-0.144c-0.539-0.072-1.043-0.252-1.51-0.503-0.072-0.036-0.144-0.072-0.216-0.108s-0.144-0.072-0.18-0.108l-0.216 0.719h-2.337v-2.265h1.69c0.324 0.18 1.618 0.611 1.978 0.719s0.719 0.216 1.115 0.288c0.396 0.072 0.791 0.108 1.151 0.108 0.144 0 0.288 0 0.431 0s0.288-0.036 0.396-0.072c0.144-0.036 0.216-0.072 0.324-0.144 0.072-0.072 0.108-0.144 0.108-0.252 0-0.144-0.108-0.252-0.324-0.36-0.216-0.072-1.87-0.18-3.38-0.324-0.971-0.072-1.87-0.324-2.661-0.827-0.575-0.36-0.827-0.863-0.755-1.618 0.036-0.395 0.108-0.719 0.324-0.971s0.503-0.467 0.827-0.647c0.467-0.252 1.582-0.503 2.445-0.467 0.791 0.036 1.474 0.072 2.049 0.216s1.079 0.36 1.438 0.611l0.18-0.683h2.229v1.978h-1.87c-0.36-0.18-0.899-0.36-1.582-0.503-0.611-0.144-1.222-0.252-1.906-0.252-0.971-0.036-1.438 0.216-1.438 0.467 0 0.144 0.108 0.252 0.324 0.324s1.582 0.18 2.013 0.18c0.431 0.036 2.229 0.144 2.697 0.252 0.431 0.072 0.827 0.18 1.187 0.36 0.827 0.431 1.115 1.222 1.079 1.654z"></path>
<path fill="#808080" style="fill: var(--color1, #808080)" d="M163.272 28.656c-0.036 0.36-0.108 0.683-0.288 0.971-0.216 0.288-0.467 0.539-0.827 0.755s-0.755 0.36-1.222 0.467c-0.467 0.108-0.971 0.18-1.546 0.18s-1.151-0.036-1.726-0.144c-0.539-0.072-1.043-0.252-1.51-0.503-0.072-0.036-0.144-0.072-0.216-0.108s-0.144-0.072-0.18-0.108l-0.216 0.719h-2.337v-2.265h1.69c0.324 0.18 1.618 0.611 1.978 0.719s0.719 0.216 1.115 0.288c0.395 0.072 0.791 0.108 1.151 0.108 0.144 0 0.288 0 0.431 0s0.288-0.036 0.395-0.072c0.144-0.036 0.216-0.072 0.324-0.144 0.072-0.072 0.108-0.144 0.108-0.252 0-0.144-0.108-0.252-0.324-0.36-0.216-0.072-1.294-0.108-1.582-0.108-0.288-0.036-0.288 0-1.798-0.108-0.971-0.072-1.834-0.288-2.625-0.791-0.575-0.36-0.827-0.935-0.791-1.726 0.036-0.395 0.108-0.719 0.324-0.971s0.503-0.467 0.827-0.647c0.324-0.18 0.719-0.288 1.151-0.36s0.863-0.108 1.294-0.108c0.791 0 1.474 0.072 2.049 0.216s1.079 0.36 1.438 0.611l0.18-0.683h2.229v1.978h-1.87c-0.431-0.324-1.007-0.324-1.582-0.503s-1.222-0.252-1.906-0.252c-0.108 0-0.252 0-0.431 0s-0.324 0.036-0.467 0.036c-0.144 0.036-0.252 0.072-0.36 0.144s-0.144 0.144-0.144 0.252c0 0.144 0.108 0.324 0.324 0.395s0.503 0.144 0.827 0.18c0.36 0.036 0.755 0 1.187 0 0.431 0.036 2.229 0.072 2.697 0.18 0.431 0.072 0.827 0.18 1.187 0.36 0.791 0.431 1.043 1.222 1.043 1.654z"></path>
<path fill="#808080" style="fill: var(--color1, #808080)" d="M21.825 26.139c0 0.36-0.108 0.647-0.324 0.899s-0.467 0.431-0.827 0.611c-0.36 0.144-0.755 0.288-1.187 0.324-0.467 0.072-0.935 0.108-1.438 0.108h-2.481v1.151h1.546v1.654h-6.472v-1.654h1.51v-3.38h-1.51v-1.654h7.587c0.467 0 0.935 0.036 1.366 0.108s0.827 0.216 1.151 0.36c0.324 0.18 0.611 0.36 0.791 0.611 0.216 0.252 0.288 0.539 0.288 0.863zM18.193 26.463c0-0.18-0.108-0.324-0.288-0.431-0.216-0.108-0.431-0.18-0.719-0.18h-1.546v1.222h1.438c0.324 0 0.611-0.036 0.827-0.144 0.18-0.072 0.288-0.252 0.288-0.467z"></path>
<path fill="#808080" style="fill: var(--color1, #808080)" d="M34.157 27.613c0 0.503-0.144 0.971-0.467 1.402s-0.755 0.791-1.294 1.079c-0.539 0.288-1.187 0.539-1.906 0.719s-1.51 0.252-2.337 0.252c-0.827 0-1.618-0.072-2.373-0.252-0.719-0.18-1.366-0.395-1.906-0.719-0.539-0.288-0.971-0.647-1.258-1.079-0.324-0.431-0.467-0.899-0.467-1.402s0.144-1.007 0.431-1.438c0.288-0.431 0.719-0.791 1.258-1.115s1.151-0.539 1.906-0.719c0.719-0.18 1.546-0.252 2.409-0.252 0.899 0 1.69 0.072 2.445 0.252 0.719 0.18 1.366 0.431 1.906 0.719 0.539 0.324 0.935 0.683 1.222 1.115s0.431 0.899 0.431 1.438zM30.022 27.506c0-0.18-0.036-0.395-0.072-0.611s-0.144-0.431-0.252-0.611c-0.144-0.18-0.324-0.324-0.575-0.467-0.252-0.108-0.575-0.18-1.007-0.18-0.395 0-0.683 0.072-0.935 0.18-0.216 0.144-0.431 0.288-0.539 0.467-0.144 0.18-0.216 0.395-0.288 0.611-0.036 0.216-0.072 0.395-0.072 0.575s0.036 0.395 0.072 0.611c0.036 0.216 0.144 0.431 0.288 0.611s0.324 0.36 0.575 0.503c0.252 0.144 0.575 0.18 0.935 0.18 0.395 0 0.683-0.072 0.935-0.216s0.431-0.288 0.575-0.503c0.144-0.18 0.216-0.395 0.288-0.611 0.036-0.18 0.072-0.36 0.072-0.539z"></path>
<path fill="#808080" style="fill: var(--color1, #808080)" d="M126.49 27.613c0 0.503-0.144 0.971-0.467 1.402s-0.755 0.791-1.294 1.079c-0.539 0.288-1.187 0.539-1.906 0.719s-1.51 0.252-2.337 0.252c-0.827 0-1.618-0.072-2.373-0.252-0.719-0.18-1.366-0.395-1.906-0.719-0.539-0.288-0.971-0.647-1.258-1.079-0.324-0.431-0.467-0.899-0.467-1.402s0.144-1.007 0.431-1.438c0.288-0.431 0.719-0.791 1.258-1.115s1.151-0.539 1.906-0.719c0.719-0.18 1.546-0.252 2.409-0.252 0.899 0 1.69 0.072 2.445 0.252 0.719 0.18 1.366 0.431 1.906 0.719 0.539 0.324 0.935 0.683 1.222 1.115s0.431 0.899 0.431 1.438zM122.355 27.506c0-0.18-0.036-0.395-0.072-0.611s-0.144-0.431-0.252-0.611c-0.144-0.18-0.324-0.324-0.575-0.467-0.252-0.108-0.575-0.18-1.007-0.18-0.395 0-0.683 0.072-0.935 0.18-0.216 0.144-0.431 0.288-0.539 0.467-0.144 0.18-0.216 0.395-0.288 0.611-0.036 0.216-0.072 0.395-0.072 0.575s0.036 0.395 0.072 0.611c0.036 0.216 0.144 0.431 0.288 0.611s0.324 0.36 0.575 0.503c0.252 0.144 0.575 0.18 0.935 0.18 0.395 0 0.683-0.072 0.935-0.216s0.431-0.288 0.575-0.503c0.144-0.18 0.216-0.395 0.288-0.611 0.036-0.18 0.072-0.36 0.072-0.539z"></path>
<path fill="#808080" style="fill: var(--color1, #808080)" d="M139.254 27.613c0 0.503-0.144 0.971-0.467 1.402s-0.755 0.791-1.294 1.079c-0.539 0.288-1.187 0.539-1.906 0.719s-1.51 0.252-2.337 0.252c-0.827 0-1.618-0.072-2.373-0.252-0.719-0.18-1.366-0.395-1.906-0.719-0.539-0.288-0.971-0.647-1.258-1.079-0.324-0.431-0.467-0.899-0.467-1.402s0.144-1.007 0.431-1.438c0.288-0.431 0.719-0.791 1.258-1.115s1.151-0.539 1.906-0.719c0.719-0.18 1.546-0.252 2.409-0.252 0.899 0 1.69 0.072 2.445 0.252 0.719 0.18 1.366 0.431 1.906 0.719 0.539 0.324 0.935 0.683 1.222 1.115s0.431 0.899 0.431 1.438zM135.119 27.506c0-0.18-0.036-0.395-0.072-0.611s-0.144-0.431-0.252-0.611c-0.144-0.18-0.324-0.324-0.575-0.467-0.252-0.108-0.575-0.18-1.007-0.18-0.395 0-0.683 0.072-0.935 0.18-0.216 0.144-0.431 0.288-0.539 0.467-0.144 0.18-0.216 0.395-0.288 0.611-0.036 0.216-0.072 0.395-0.072 0.575s0.036 0.395 0.072 0.611c0.036 0.216 0.144 0.431 0.288 0.611s0.324 0.36 0.575 0.503c0.252 0.144 0.575 0.18 0.935 0.18 0.395 0 0.683-0.072 0.935-0.216s0.431-0.288 0.575-0.503c0.144-0.18 0.216-0.395 0.288-0.611 0.036-0.18 0.072-0.36 0.072-0.539z"></path>
<path fill="#808080" style="fill: var(--color1, #808080)" d="M47.245 29.375c0 0.539-0.216 0.971-0.683 1.258s-1.115 0.431-1.978 0.431c-0.503 0-0.935-0.036-1.366-0.108-0.611-0.108-1.187-0.395-1.474-0.899-0.18-0.324-0.288-1.151-0.324-1.294 0-0.144-0.18-0.611-0.252-0.647h-1.618v1.151h1.366v1.69h-6.364v-1.69h1.546v-3.38h-1.546v-1.654h7.622c0.467 0 0.935 0.036 1.366 0.108s0.827 0.18 1.151 0.324c0.324 0.144 0.575 0.36 0.791 0.575 0.216 0.252 0.288 0.503 0.288 0.863 0 0.288-0.072 0.791-0.539 1.187-0.288 0.252-1.079 0.575-1.474 0.503 0.18 0.036 0.395 0.072 0.647 0.252 0.575 0.395 0.719 1.438 0.971 1.582 0.072 0.036 0.144 0.072 0.252 0.072s0.216-0.036 0.252-0.072c0.072-0.072 0.108-0.108 0.144-0.216 0.036-0.072 0.036-0.18 0.036-0.252s0-0.144 0-0.18h1.115c0.036 0.072 0.072 0.216 0.072 0.395zM42.211 26.463c0-0.18-0.108-0.324-0.288-0.431s-0.431-0.18-0.719-0.18h-1.546v1.222h1.474c0.324 0 0.575-0.036 0.791-0.144 0.18-0.108 0.288-0.252 0.288-0.467z"></path>
<path fill="#808080" style="fill: var(--color1, #808080)" d="M55.73 27.218v-1.438h-1.582v3.452c0.288 0 1.258 0 1.546 0v1.654h-6.544v-1.654h1.546v-3.452h-1.582v1.438h-2.553v-3.056h11.793v3.056h-2.625z"></path>
<path fill="#808080" style="fill: var(--color1, #808080)" d="M59.398 30.885v-1.654h1.654v-3.38h-1.654v-1.69h6.796v1.69h-1.69v3.38h1.69v1.654z"></path>
<path fill="#808080" style="fill: var(--color1, #808080)" d="M78.993 25.852v5.070h-4.458l-3.811-4.243v2.589h1.618c-0.036 0.288 0 1.402 0 1.654h-5.142v-1.654h1.546v-3.38h-1.546v-1.654h6.472l3.452 4.063v-2.409h-1.546v-1.654h4.818v1.654h-1.402z"></path>
<path fill="#808080" style="fill: var(--color1, #808080)" d="M91.865 28.189v2.733h-2.948v-0.719c-0.252 0.144-0.467 0.288-0.683 0.395s-0.467 0.18-0.755 0.252c-0.288 0.072-0.575 0.108-0.863 0.144-0.324 0.036-0.647 0.036-1.043 0.036-0.791 0-1.51-0.072-2.157-0.252-0.611-0.18-1.151-0.431-1.582-0.719-0.431-0.324-0.755-0.683-0.971-1.079-0.216-0.431-0.324-0.863-0.324-1.366 0-0.467 0.108-0.899 0.36-1.33s0.611-0.791 1.043-1.151c0.467-0.324 1.007-0.611 1.618-0.791 0.647-0.216 1.33-0.288 2.085-0.288 0.719 0 1.33 0.072 1.834 0.216s0.935 0.395 1.294 0.791v-0.863h2.984v2.553h-2.948c-0.18-0.36-0.467-0.611-0.791-0.755s-0.791-0.252-1.33-0.252c-0.431 0-0.755 0.072-1.043 0.18s-0.503 0.252-0.683 0.467c-0.18 0.18-0.288 0.395-0.36 0.611s-0.108 0.467-0.108 0.683c0 0.216 0.036 0.467 0.108 0.683s0.216 0.431 0.395 0.611c0.18 0.18 0.395 0.324 0.719 0.431 0.288 0.108 0.647 0.18 1.079 0.18 0.36 0 0.683-0.036 0.935-0.108s0.467-0.144 0.611-0.252c0.144-0.108 0.288-0.252 0.36-0.431s0.144-0.36 0.18-0.539h-1.366v-1.007h5.537v1.007h-1.187z"></path>
<path fill="#808080" style="fill: var(--color1, #808080)" d="M112.431 28.189v2.733h-2.912v-0.719c-0.252 0.144-0.467 0.288-0.683 0.395s-0.467 0.18-0.755 0.252c-0.288 0.072-0.575 0.108-0.863 0.144-0.324 0.036-0.647 0.036-1.043 0.036-0.791 0-1.51-0.072-2.157-0.252-0.611-0.18-1.151-0.431-1.582-0.719-0.431-0.324-0.755-0.683-0.971-1.079-0.216-0.431-0.324-0.863-0.324-1.366 0-0.467 0.108-0.899 0.36-1.33s0.611-0.791 1.043-1.151c0.467-0.324 1.007-0.611 1.618-0.791 0.647-0.216 1.33-0.288 2.085-0.288 0.719 0 1.33 0.072 1.834 0.216s0.935 0.395 1.294 0.791v-0.863h2.984v2.553h-2.984c-0.18-0.36-0.467-0.611-0.791-0.755s-0.791-0.252-1.33-0.252c-0.431 0-0.755 0.072-1.043 0.18s-0.503 0.252-0.683 0.467c-0.18 0.18-0.288 0.395-0.36 0.611s-0.108 0.467-0.108 0.683c0 0.216 0.036 0.467 0.108 0.683s0.216 0.431 0.395 0.611c0.18 0.18 0.395 0.324 0.719 0.431 0.288 0.108 0.647 0.18 1.079 0.18 0.36 0 0.683-0.036 0.935-0.108s0.467-0.144 0.611-0.252c0.144-0.108 0.288-0.252 0.36-0.431s0.144-0.36 0.18-0.539h-1.366v-1.007h5.537v1.007h-1.187z"></path>
<path fill="#808080" style="fill: var(--color1, #808080)" d="M152.126 27.649c0 0.503-0.144 0.935-0.431 1.33s-0.683 0.755-1.187 1.043c-0.503 0.288-1.079 0.503-1.762 0.647s-1.366 0.252-2.121 0.252h-6.939v-1.654h1.546v-3.38h-1.546v-1.654h7.047c0.791 0 1.546 0.072 2.193 0.252 0.683 0.18 1.222 0.431 1.726 0.719 0.467 0.324 0.827 0.683 1.115 1.115 0.252 0.36 0.36 0.827 0.36 1.33zM148.207 27.542c0-0.216-0.036-0.395-0.108-0.611s-0.18-0.395-0.36-0.539c-0.18-0.144-0.36-0.288-0.647-0.395-0.252-0.108-0.575-0.144-0.971-0.144h-1.51v3.38h1.474c0.395 0 0.755-0.036 1.007-0.144s0.467-0.216 0.647-0.36c0.144-0.144 0.252-0.324 0.324-0.539 0.108-0.216 0.144-0.431 0.144-0.647z"></path>
<path fill="#808080" style="fill: var(--color1, #808080)" d="M211.056 8.521c0 0-2.912 0-6.688 0.503-2.697 0.36-5.825 0.971-8.629 2.013v-5.465h13.231c0 0 6.652-0.036 11.506 2.373h7.946v-6.831h-51.416v16.575h16.36c0 0 3.955-3.883 10.966-3.955 0.036 0 0.108 0 0.144 0 7.587 0 9.6 2.373 9.6 5.106 0 1.115-0.144 6.112-9.384 6.112-0.144 0-0.252 0-0.395 0-8.881-0.144-10.535-4.746-10.535-4.746h-16.719c0 0 1.87 10.858 27.29 11.613 0.899 0.036 1.798 0.036 2.733 0.036 0 0 24.593 0.072 24.593-12.836 0.036 0.036 0.827-10.499-20.602-10.499z"></path>
<path fill="#808080" style="fill: var(--color1, #808080)" d="M65.079 20.602v-4.818h6.328v-9.78h-6.328v-4.818h28.656v4.818h-6.4v9.78h6.4v4.818z"></path>
<path fill="#808080" style="fill: var(--color1, #808080)" d="M159.209 14.418v6.867h-10.607l-1.258-3.2c-3.128 1.402-9.276 3.596-20.207 3.596-3.631 0-6.867-0.324-9.744-0.827-12.333-2.157-13.195-7.083-13.195-9.708 0-3.056 0.647-7.982 13.879-10.247 2.912-0.503 6.076-0.683 9.528-0.683 3.272 0 6.040 0.396 8.378 0.719 3.667 0.503 5.933 1.187 8.845 1.834l1.438-1.546h12.944v6.76h-16.144c-1.187-0.611-3.344-1.366-4.89-1.87-1.546-0.467-3.56-0.719-6.076-0.719-1.906 0-3.488 0.18-4.782 0.539s-2.337 0.827-3.128 1.402c-0.791 0.575-1.366 1.187-1.69 1.906-0.36 0.683-0.503 1.366-0.503 2.049 0 0.719 0.18 1.402 0.539 2.085s0.971 1.294 1.762 1.834c0.791 0.539 1.87 0.971 3.2 1.294s2.948 0.503 4.89 0.503c1.654 0 3.524-0.18 4.746-0.431 1.906-0.395 3.811-1.402 4.602-2.121h-5.789v-4.638h26.751v4.566h-3.488z"></path>
<path fill="#808080" style="fill: var(--color1, #808080)" d="M52.854 15.425c0 2.265-1.798 4.351-7.658 4.998-2.085 0.216-2.769 0.216-3.955 0.252h-41.24v-4.854h5.861v-9.78h-5.861v-4.818h41.708c1.87 0 6.436 0 8.378 1.187 2.013 1.222 2.193 2.984 2.193 3.883 0 0.611-0.252 2.984-3.2 3.847-1.474 0.431-2.589 0.647-2.804 0.683 0.216 0.036 1.978 0.216 3.416 0.503 1.618 0.324 3.164 1.906 3.164 4.099zM22.4 5.969v3.236h8.989c1.115 0 2.049-0.072 2.373-0.719s0.252-1.474-0.036-1.942c-0.324-0.431-1.222-0.611-2.013-0.575h-9.312zM22.4 12.009v3.236h8.989c1.115 0 2.049-0.072 2.373-0.719s0.252-1.474-0.036-1.942c-0.324-0.431-1.222-0.611-2.013-0.575h-9.312z"></path>
</symbol>
<symbol id="icon-big5-logo-square" viewBox="0 0 40 32">
<title>big5-logo-square</title>
<path fill="#808080" style="fill: var(--color1, #808080)" d="M4.506 26.612c0 0.163-0.033 0.294-0.131 0.392-0.098 0.131-0.196 0.229-0.359 0.327s-0.327 0.163-0.522 0.196c-0.196 0.033-0.425 0.065-0.653 0.065-0.261 0-0.49-0.033-0.718-0.065s-0.457-0.098-0.653-0.196c-0.033 0-0.065-0.033-0.098-0.033l-0.065-0.033-0.098 0.294h-0.98v-0.947h0.751c0.131 0.065 0.686 0.261 0.849 0.294 0.131 0.033 0.294 0.098 0.457 0.098 0.163 0.033 0.327 0.033 0.49 0.033 0.065 0 0.131 0 0.163 0 0.065 0 0.131 0 0.163-0.033 0.065 0 0.098-0.033 0.131-0.065s0.065-0.065 0.065-0.098c0-0.065-0.033-0.098-0.131-0.163-0.098-0.033-0.784-0.065-1.437-0.131-0.425 0-0.784-0.098-1.11-0.327-0.229-0.163-0.327-0.359-0.327-0.686 0-0.163 0.033-0.294 0.131-0.424 0.098-0.098 0.196-0.196 0.359-0.261 0.196-0.098 0.686-0.196 1.012-0.196s0.62 0.033 0.882 0.098c0.261 0.065 0.457 0.163 0.62 0.261l0.065-0.294h0.947v0.849h-0.784c-0.163-0.065-0.359-0.131-0.686-0.229-0.261-0.065-0.522-0.098-0.784-0.098-0.392 0-0.588 0.098-0.588 0.196 0 0.065 0.033 0.098 0.131 0.131s0.653 0.065 0.849 0.098c0.196 0 0.947 0.065 1.143 0.098s0.359 0.098 0.49 0.163c0.327 0.163 0.457 0.49 0.425 0.686z"></path>
<path fill="#808080" style="fill: var(--color1, #808080)" d="M9.502 25.535c0 0.163-0.033 0.261-0.131 0.392-0.098 0.098-0.196 0.196-0.359 0.261-0.131 0.065-0.327 0.098-0.522 0.131s-0.392 0.033-0.588 0.033h-1.045v0.49h0.653v0.718h-2.743v-0.718h0.62v-1.437h-0.62v-0.718h3.2c0.196 0 0.392 0.033 0.588 0.065s0.359 0.098 0.49 0.163c0.131 0.065 0.261 0.163 0.327 0.261s0.131 0.229 0.131 0.359zM7.967 25.665c0-0.065-0.033-0.131-0.131-0.196-0.098-0.033-0.196-0.065-0.294-0.065h-0.653v0.522h0.62c0.131 0 0.261-0.033 0.359-0.065 0.033-0.033 0.098-0.098 0.098-0.196z"></path>
<path fill="#808080" style="fill: var(--color1, #808080)" d="M14.694 26.155c0 0.229-0.065 0.424-0.196 0.588s-0.327 0.327-0.555 0.457c-0.229 0.131-0.49 0.229-0.816 0.294-0.294 0.065-0.653 0.098-0.98 0.098-0.359 0-0.686-0.033-1.012-0.098-0.294-0.065-0.588-0.163-0.816-0.294s-0.392-0.294-0.522-0.457c-0.131-0.163-0.196-0.392-0.196-0.588 0-0.229 0.065-0.424 0.196-0.62s0.294-0.327 0.522-0.457c0.229-0.131 0.49-0.229 0.816-0.294 0.294-0.065 0.653-0.098 1.012-0.098s0.718 0.033 1.045 0.098c0.327 0.065 0.588 0.163 0.816 0.327 0.229 0.131 0.392 0.294 0.522 0.49 0.098 0.131 0.163 0.327 0.163 0.555zM12.963 26.122c0-0.065 0-0.163-0.033-0.261s-0.065-0.163-0.098-0.261c-0.065-0.065-0.131-0.131-0.229-0.196s-0.261-0.065-0.425-0.065c-0.163 0-0.294 0.033-0.392 0.065-0.098 0.065-0.163 0.131-0.229 0.196s-0.098 0.163-0.131 0.261c-0.033 0.098-0.033 0.163-0.033 0.261 0 0.065 0 0.163 0.033 0.261s0.065 0.196 0.131 0.261c0.065 0.098 0.131 0.163 0.229 0.196 0.098 0.065 0.229 0.098 0.392 0.098s0.294-0.033 0.392-0.098c0.098-0.065 0.163-0.131 0.229-0.196 0.065-0.098 0.098-0.163 0.131-0.261 0-0.098 0.033-0.196 0.033-0.261z"></path>
<path fill="#808080" style="fill: var(--color1, #808080)" d="M20.212 26.906c0 0.229-0.098 0.392-0.294 0.522s-0.457 0.163-0.849 0.163c-0.196 0-0.392 0-0.588-0.033-0.261-0.033-0.522-0.163-0.62-0.392-0.065-0.131-0.131-0.49-0.131-0.555s-0.065-0.261-0.098-0.261h-0.686v0.49h0.588v0.718h-2.678v-0.718h0.653v-1.437h-0.653v-0.718h3.233c0.196 0 0.392 0 0.588 0.033s0.359 0.065 0.49 0.131c0.131 0.065 0.261 0.163 0.327 0.261 0.098 0.098 0.131 0.229 0.131 0.359s-0.033 0.327-0.229 0.522c-0.131 0.131-0.457 0.261-0.62 0.229 0.065 0 0.163 0.033 0.261 0.098 0.261 0.163 0.294 0.588 0.424 0.653 0.033 0.033 0.065 0.033 0.098 0.033s0.098 0 0.098-0.033c0.033-0.033 0.033-0.065 0.065-0.098 0-0.033 0.033-0.065 0.033-0.098s0-0.065 0-0.065h0.457c0 0.065 0 0.131 0 0.196zM18.090 25.665c0-0.065-0.033-0.131-0.131-0.196-0.065-0.033-0.196-0.065-0.294-0.065h-0.653v0.522h0.62c0.131 0 0.261-0.033 0.327-0.065 0.098-0.033 0.131-0.098 0.131-0.196z"></path>
<path fill="#808080" style="fill: var(--color1, #808080)" d="M23.804 25.992v-0.62h-0.686v1.469c0.131 0 0.522 0 0.653 0v0.718h-2.743v-0.718h0.653v-1.469h-0.686v0.62h-1.078v-1.306h4.996v1.306h-1.11z"></path>
<path fill="#808080" style="fill: var(--color1, #808080)" d="M25.371 27.559v-0.718h0.686v-1.437h-0.686v-0.686h2.873v0.686h-0.718v1.437h0.718v0.718z"></path>
<path fill="#808080" style="fill: var(--color1, #808080)" d="M33.633 25.404v2.122h-1.894l-1.6-1.796v1.078h0.686c0 0.131 0 0.588 0 0.718h-2.188v-0.718h0.653v-1.437h-0.653v-0.718h2.743l1.469 1.731v-1.012h-0.653v-0.718h2.025v0.718h-0.588z"></path>
<path fill="#808080" style="fill: var(--color1, #808080)" d="M39.086 26.416v1.143h-1.241v-0.294c-0.098 0.065-0.196 0.131-0.294 0.163s-0.196 0.065-0.327 0.098c-0.098 0.033-0.229 0.033-0.359 0.065-0.131 0-0.294 0.033-0.457 0.033-0.327 0-0.653-0.033-0.914-0.098s-0.49-0.163-0.686-0.294c-0.196-0.131-0.327-0.294-0.425-0.457s-0.131-0.359-0.131-0.555c0-0.196 0.065-0.392 0.163-0.555 0.098-0.196 0.261-0.327 0.457-0.49 0.196-0.131 0.425-0.261 0.686-0.327 0.261-0.098 0.555-0.131 0.882-0.131 0.294 0 0.555 0.033 0.784 0.098s0.392 0.163 0.555 0.327v-0.359h1.273v1.012h-1.273c-0.065-0.131-0.196-0.261-0.327-0.327s-0.327-0.098-0.555-0.098c-0.163 0-0.327 0.033-0.457 0.065s-0.229 0.098-0.294 0.196c-0.065 0.065-0.131 0.163-0.163 0.261s-0.033 0.196-0.033 0.294c0 0.098 0.033 0.196 0.065 0.294s0.098 0.163 0.163 0.261c0.065 0.065 0.163 0.131 0.294 0.163s0.261 0.065 0.457 0.065c0.163 0 0.294 0 0.392-0.033s0.196-0.065 0.261-0.098c0.065-0.033 0.131-0.098 0.163-0.163s0.065-0.131 0.065-0.229h-0.588v-0.424h2.351v0.424h-0.49z"></path>
<path fill="#808080" style="fill: var(--color1, #808080)" d="M33.045 30.89c0 0.163-0.033 0.294-0.131 0.392-0.098 0.131-0.196 0.229-0.359 0.327s-0.327 0.163-0.522 0.196c-0.196 0.033-0.424 0.065-0.653 0.065-0.261 0-0.49-0.033-0.718-0.065s-0.457-0.098-0.653-0.196c-0.033 0-0.065-0.033-0.098-0.033l-0.065-0.033-0.098 0.294h-0.98v-0.947h0.718c0.131 0.065 0.686 0.261 0.849 0.294 0.131 0.065 0.294 0.098 0.457 0.131s0.327 0.033 0.49 0.033c0.065 0 0.131 0 0.163 0 0.065 0 0.131 0 0.163-0.033 0.065 0 0.098-0.033 0.131-0.065s0.065-0.065 0.065-0.098c0-0.065-0.033-0.098-0.131-0.163-0.098-0.033-0.555-0.033-0.686-0.065-0.131 0-0.131 0-0.751-0.065-0.424-0.033-0.784-0.131-1.11-0.327-0.229-0.163-0.359-0.392-0.327-0.718 0-0.163 0.033-0.294 0.131-0.424 0.098-0.098 0.196-0.196 0.359-0.261 0.131-0.065 0.294-0.131 0.49-0.163s0.359-0.033 0.555-0.033c0.327 0 0.62 0.033 0.882 0.098s0.457 0.163 0.62 0.261l0.065-0.294h0.947v0.849h-0.784c-0.196-0.131-0.424-0.131-0.686-0.229-0.261-0.065-0.522-0.098-0.784-0.098-0.065 0-0.098 0-0.196 0-0.065 0-0.131 0-0.196 0.033-0.065 0-0.098 0.033-0.163 0.065-0.033 0.033-0.065 0.065-0.065 0.098 0 0.065 0.033 0.131 0.131 0.163s0.196 0.065 0.359 0.065c0.131 0.033 0.327 0 0.49 0 0.196 0 0.947 0.033 1.143 0.065s0.359 0.098 0.49 0.163c0.359 0.196 0.457 0.522 0.457 0.718z"></path>
<path fill="#808080" style="fill: var(--color1, #808080)" d="M17.502 30.433c0 0.229-0.065 0.424-0.196 0.588s-0.327 0.327-0.555 0.457c-0.229 0.131-0.49 0.229-0.816 0.294-0.294 0.065-0.653 0.098-0.98 0.098-0.359 0-0.686-0.033-1.012-0.098-0.294-0.065-0.588-0.163-0.816-0.294s-0.392-0.294-0.522-0.457c-0.131-0.163-0.196-0.392-0.196-0.588 0-0.229 0.065-0.424 0.196-0.62s0.294-0.327 0.522-0.457c0.229-0.131 0.49-0.229 0.816-0.294 0.294-0.065 0.653-0.098 1.012-0.098s0.718 0.033 1.045 0.098c0.327 0.065 0.588 0.163 0.816 0.294s0.392 0.294 0.522 0.49c0.098 0.163 0.163 0.359 0.163 0.588zM15.739 30.4c0-0.065 0-0.163-0.033-0.261s-0.065-0.163-0.098-0.261c-0.065-0.065-0.131-0.131-0.229-0.196s-0.261-0.065-0.425-0.065c-0.163 0-0.294 0.033-0.392 0.065-0.098 0.065-0.163 0.131-0.229 0.196s-0.098 0.163-0.131 0.261c-0.033 0.098-0.033 0.163-0.033 0.261 0 0.065 0 0.163 0.033 0.261s0.065 0.196 0.131 0.261c0.065 0.098 0.131 0.163 0.229 0.196 0.098 0.065 0.229 0.098 0.392 0.098s0.294-0.033 0.392-0.098c0.098-0.065 0.163-0.131 0.229-0.196 0.065-0.098 0.098-0.163 0.131-0.261s0.033-0.196 0.033-0.261z"></path>
<path fill="#808080" style="fill: var(--color1, #808080)" d="M22.89 30.433c0 0.229-0.065 0.424-0.196 0.588s-0.327 0.327-0.555 0.457c-0.229 0.131-0.49 0.229-0.816 0.294-0.294 0.065-0.653 0.098-0.98 0.098-0.359 0-0.686-0.033-1.012-0.098-0.294-0.065-0.588-0.163-0.816-0.294s-0.392-0.294-0.522-0.457c-0.131-0.163-0.196-0.392-0.196-0.588 0-0.229 0.065-0.424 0.196-0.62s0.294-0.327 0.522-0.457c0.229-0.131 0.49-0.229 0.816-0.294 0.294-0.065 0.653-0.098 1.012-0.098s0.718 0.033 1.045 0.098c0.327 0.065 0.588 0.163 0.816 0.294s0.392 0.294 0.522 0.49c0.131 0.163 0.163 0.359 0.163 0.588zM21.159 30.4c0-0.065 0-0.163-0.033-0.261s-0.065-0.163-0.098-0.261c-0.065-0.065-0.131-0.131-0.229-0.196s-0.261-0.065-0.424-0.065c-0.163 0-0.294 0.033-0.392 0.065-0.098 0.065-0.163 0.131-0.229 0.196s-0.098 0.163-0.131 0.261c-0.033 0.098-0.033 0.196-0.033 0.261s0 0.163 0.033 0.261c0.033 0.098 0.065 0.196 0.131 0.261 0.065 0.098 0.131 0.163 0.229 0.196 0.098 0.065 0.229 0.098 0.392 0.098s0.294-0.033 0.392-0.098c0.098-0.065 0.163-0.131 0.229-0.196 0.065-0.098 0.098-0.163 0.131-0.261s0.033-0.196 0.033-0.261z"></path>
<path fill="#808080" style="fill: var(--color1, #808080)" d="M11.559 30.694v1.143h-1.241v-0.294c-0.098 0.065-0.196 0.131-0.294 0.163s-0.196 0.065-0.327 0.098c-0.098 0.033-0.229 0.033-0.359 0.065-0.131 0-0.294 0.033-0.457 0.033-0.327 0-0.653-0.033-0.914-0.098s-0.49-0.163-0.686-0.294c-0.196-0.131-0.327-0.294-0.425-0.457s-0.131-0.359-0.131-0.555c0-0.196 0.065-0.392 0.163-0.555 0.098-0.196 0.261-0.327 0.457-0.49 0.196-0.131 0.425-0.261 0.686-0.327s0.555-0.131 0.882-0.131c0.294 0 0.555 0.033 0.784 0.098s0.392 0.163 0.555 0.327v-0.359h1.273v1.078h-1.273c-0.065-0.131-0.196-0.261-0.327-0.327s-0.327-0.098-0.555-0.098c-0.163 0-0.327 0.033-0.457 0.065s-0.229 0.098-0.294 0.196c-0.065 0.065-0.131 0.163-0.163 0.261s-0.033 0.196-0.033 0.294c0 0.098 0.033 0.196 0.065 0.294s0.098 0.163 0.163 0.261c0.065 0.065 0.163 0.131 0.294 0.163s0.261 0.065 0.457 0.065c0.163 0 0.294 0 0.392-0.033s0.196-0.065 0.261-0.098c0.065-0.033 0.131-0.098 0.163-0.163s0.065-0.131 0.065-0.229h-0.588v-0.424h2.351v0.327h-0.49z"></path>
<path fill="#808080" style="fill: var(--color1, #808080)" d="M28.343 30.465c0 0.196-0.065 0.392-0.196 0.555s-0.294 0.327-0.49 0.424c-0.229 0.131-0.457 0.229-0.751 0.294s-0.588 0.098-0.914 0.098h-2.939v-0.718h0.653v-1.404h-0.653v-0.718h2.971c0.327 0 0.653 0.033 0.947 0.098s0.522 0.163 0.718 0.294 0.359 0.294 0.457 0.457c0.163 0.196 0.196 0.392 0.196 0.62zM26.678 30.433c0-0.098 0-0.163-0.033-0.261s-0.065-0.163-0.163-0.229c-0.065-0.065-0.163-0.131-0.261-0.163-0.098-0.065-0.261-0.065-0.392-0.065h-0.653v1.437h0.62c0.163 0 0.327-0.033 0.424-0.065s0.196-0.098 0.261-0.163c0.065-0.065 0.098-0.131 0.131-0.229 0.065-0.098 0.065-0.196 0.065-0.261z"></path>
<path fill="#808080" style="fill: var(--color1, #808080)" d="M34.090 6.922c0.816 0 1.502 0.62 1.502 1.437s-0.653 1.437-1.502 1.437c-0.816 0-1.502-0.62-1.502-1.437s0.653-1.437 1.502-1.437v0zM34.090 7.151c-0.653 0-1.208 0.555-1.208 1.208 0 0.686 0.555 1.208 1.208 1.208 0.686 0 1.208-0.522 1.208-1.208s-0.555-1.208-1.208-1.208v0zM33.796 9.143h-0.261v-1.6c0.131-0.033 0.261-0.033 0.49-0.033 0.261 0 0.425 0.065 0.522 0.131s0.163 0.163 0.163 0.327c0 0.196-0.163 0.327-0.327 0.392v0c0.163 0.033 0.261 0.163 0.294 0.392 0.033 0.261 0.065 0.327 0.098 0.392h-0.294c-0.033-0.065-0.065-0.196-0.098-0.392s-0.163-0.294-0.359-0.294h-0.196v0.686zM33.796 8.294h0.196c0.229 0 0.425-0.065 0.425-0.261 0-0.131-0.098-0.294-0.425-0.294-0.098 0-0.163 0-0.196 0v0.555z"></path>
<path fill="#808080" style="fill: var(--color1, #808080)" d="M22.857 10.678c0 0-1.502 0-3.461 0.261-1.404 0.196-3.004 0.49-4.473 1.045v-2.841h6.857c0 0 3.429-0.033 5.943 1.241h4.114v-3.527h-26.58v8.588h8.457c0 0 2.057-2.024 5.682-2.024h0.065c3.918 0 4.963 1.241 4.963 2.645 0 0.588-0.065 3.167-4.865 3.167-0.065 0-0.131 0-0.196 0-4.604-0.065-5.453-2.449-5.453-2.449h-8.653c0 0 0.98 5.616 14.106 6.008 0.457 0 0.914 0.033 1.404 0.033 0 0 12.702 0.033 12.702-6.629 0.033-0.065 0.457-5.518-10.612-5.518z"></path>
<path fill="#808080" style="fill: var(--color1, #808080)" d="M15.935 4.833v-1.175h1.535v-2.416h-1.535v-1.175h7.020v1.175h-1.567v2.416h1.567v1.175z"></path>
<path fill="#808080" style="fill: var(--color1, #808080)" d="M38.955 3.298v1.665h-2.58l-0.294-0.784c-0.784 0.327-2.286 0.882-4.963 0.882-0.882 0-1.698-0.065-2.384-0.196-3.037-0.522-3.233-1.731-3.233-2.384 0-0.751 0.163-1.959 3.396-2.514 0.718-0.131 1.469-0.163 2.318-0.163 0.816 0 1.469 0.098 2.057 0.163 0.914 0.131 1.469 0.294 2.155 0.457l0.359-0.392h3.167v1.665h-3.951c-0.294-0.163-0.816-0.327-1.208-0.457s-0.882-0.163-1.469-0.163c-0.457 0-0.849 0.033-1.175 0.131s-0.555 0.196-0.751 0.327c-0.196 0.131-0.327 0.294-0.424 0.457s-0.131 0.327-0.131 0.49c0 0.163 0.033 0.359 0.131 0.522s0.229 0.327 0.424 0.457c0.196 0.131 0.457 0.229 0.784 0.327 0.327 0.065 0.718 0.131 1.208 0.131 0.392 0 0.849-0.033 1.175-0.098 0.457-0.098 0.914-0.359 1.143-0.522h-1.404v-1.11h6.531v1.11h-0.882z"></path>
<path fill="#808080" style="fill: var(--color1, #808080)" d="M12.931 3.559c0 0.555-0.425 1.078-1.894 1.208-0.522 0.065-0.686 0.065-0.98 0.065h-10.057v-1.175h1.437v-2.384h-1.437v-1.175h10.22c0.457 0 1.567 0 2.057 0.294s0.522 0.718 0.522 0.947c0 0.163-0.065 0.718-0.784 0.947-0.359 0.098-0.62 0.163-0.686 0.163 0.065 0 0.49 0.065 0.816 0.131 0.425 0.065 0.784 0.457 0.784 0.98zM5.486 1.241v0.784h2.188c0.261 0 0.49-0.033 0.588-0.163 0.065-0.163 0.065-0.359 0-0.457s-0.294-0.163-0.49-0.131l-2.286-0.033zM5.486 2.71v0.784h2.188c0.261 0 0.49-0.033 0.588-0.163 0.065-0.163 0.065-0.359 0-0.457s-0.294-0.163-0.49-0.131l-2.286-0.033z"></path>
</symbol>
<symbol id="icon-cart-active" viewBox="0 0 35 32">
<title>cart-active</title>
<path fill="#808080" style="fill: var(--color1, #808080)" d="M31.467 7.573l-3.093 11.627h-16.533l-5.227-19.2h-6.613v4.267h3.947l5.227 19.2h22.080l3.947-15.893z"></path>
<path fill="#808080" style="fill: var(--color1, #808080)" d="M12.8 26.667c-1.493 0-2.667 1.173-2.667 2.667s1.173 2.667 2.667 2.667 2.667-1.173 2.667-2.667c0-1.493-1.173-2.667-2.667-2.667z"></path>
<path fill="#808080" style="fill: var(--color1, #808080)" d="M27.093 26.667c-1.493 0-2.667 1.173-2.667 2.667s1.173 2.667 2.667 2.667c1.493 0 2.667-1.173 2.667-2.667s-1.28-2.667-2.667-2.667z"></path>
</symbol>
<symbol id="icon-cart" viewBox="0 0 35 32">
<title>cart</title>
<path fill="#808080" style="fill: var(--color1, #808080)" d="M7.893 5.333l-1.493-5.333h-6.4v4.267h3.84l5.12 19.2h21.547l4.693-18.133h-27.307zM27.733 19.2h-16.213l-2.773-10.667h21.547l-2.56 10.667z"></path>
<path fill="#808080" style="fill: var(--color1, #808080)" d="M12.587 26.667c-1.493 0-2.56 1.173-2.56 2.667s1.173 2.667 2.56 2.667 2.56-1.173 2.56-2.667c0-1.493-1.173-2.667-2.56-2.667z"></path>
<path fill="#808080" style="fill: var(--color1, #808080)" d="M26.453 26.667c-1.493 0-2.56 1.173-2.56 2.667s1.173 2.667 2.56 2.667c1.493 0 2.56-1.173 2.56-2.667 0.107-1.493-1.067-2.667-2.56-2.667z"></path>
</symbol>
<symbol id="icon-facebook" viewBox="0 0 32 32">
<title>facebook</title>
<path fill="#808080" style="fill: var(--color1, #808080)" d="M32 16c0 8.837-7.163 16-16 16s-16-7.163-16-16c0-8.837 7.163-16 16-16s16 7.163 16 16z"></path>
<path fill="#fff" style="fill: var(--color2, #fff)" d="M23.76 7.28h-15.52c-0.56 0-0.96 0.4-0.96 0.96v15.6c0 0.56 0.4 0.96 0.96 0.96h8.4v-6.8h-2.32v-2.64h2.32v-1.92c0-2.24 1.36-3.52 3.36-3.52 0.96 0 1.76 0.080 2 0.080v2.4h-1.36c-1.12 0-1.28 0.56-1.28 1.28v1.68h2.64l-0.4 2.64h-2.24v6.8h4.48c0.56 0 0.96-0.4 0.96-0.96v-15.6c-0.080-0.56-0.48-0.96-1.040-0.96z"></path>
</symbol>
<symbol id="icon-instagram" viewBox="0 0 32 32">
<title>instagram</title>
<path fill="#808080" style="fill: var(--color1, #808080)" d="M32 16c0 8.837-7.163 16-16 16s-16-7.163-16-16c0-8.837 7.163-16 16-16s16 7.163 16 16z"></path>
<path fill="#fff" style="fill: var(--color2, #fff)" d="M22.88 14.64h-1.52c0.080 0.48 0.16 0.88 0.16 1.36 0 3.040-2.48 5.52-5.52 5.52s-5.52-2.48-5.52-5.52c0-0.48 0.080-0.96 0.16-1.36h-1.6v7.6c0 0.4 0.32 0.72 0.72 0.72h12.4c0.4 0 0.72-0.32 0.72-0.72v-7.6zM22.88 9.76c0-0.4-0.32-0.72-0.72-0.72h-2.080c-0.4 0-0.72 0.32-0.72 0.72v2.080c0 0.4 0.32 0.72 0.72 0.72h2.080c0.4 0 0.72-0.32 0.72-0.72v-2.080zM16 12.56c-1.92 0-3.44 1.52-3.44 3.44s1.52 3.44 3.44 3.44c1.92 0 3.44-1.52 3.44-3.44s-1.52-3.44-3.44-3.44zM22.88 24.96h-13.76c-1.12 0-2.080-0.96-2.080-2.080v-13.76c0-1.12 0.96-2.080 2.080-2.080h13.76c1.12 0 2.080 0.96 2.080 2.080v13.76c0 1.12-0.96 2.080-2.080 2.080z"></path>
</symbol>
<symbol id="icon-search" viewBox="0 0 32 32">
<title>search</title>
<path fill="#808080" style="fill: var(--color1, #808080)" d="M26.611 18.695c-0.505 1.347-1.179 2.695-2.189 3.705l7.242 7.242c0.337 0.337 0.337 0.842 0 1.011l-1.011 1.011c-0.337 0.337-0.842 0.337-1.011 0l-7.242-7.242c-1.179 0.842-2.358 1.684-3.705 2.189-1.516 0.505-3.2 0.842-4.884 0.842-3.874 0-7.242-1.516-9.768-4.042-2.526-2.358-4.042-5.895-4.042-9.6s1.516-7.242 4.042-9.768c2.526-2.526 5.895-4.042 9.768-4.042s7.242 1.516 9.768 4.042c2.526 2.526 4.042 5.895 4.042 9.768 0 1.684-0.337 3.368-1.011 4.884v0zM6.232 21.389c2.021 2.021 4.716 3.2 7.579 3.2 3.032 0 5.726-1.179 7.579-3.2 2.021-2.021 3.2-4.716 3.2-7.579 0-3.032-1.179-5.726-3.2-7.579-1.853-2.021-4.547-3.2-7.579-3.2s-5.726 1.179-7.579 3.2c-2.021 1.853-3.2 4.547-3.2 7.579s1.179 5.726 3.2 7.579z"></path>
</symbol>
<symbol id="icon-menu" viewBox="0 0 40 32">
<title>menu</title>
<path fill="#808080" style="fill: var(--color1, #808080)" d="M0 0h40v5.333h-40v-5.333z"></path>
<path fill="#808080" style="fill: var(--color1, #808080)" d="M0 13.333h40v5.333h-40v-5.333z"></path>
<path fill="#808080" style="fill: var(--color1, #808080)" d="M0 26.667h40v5.333h-40v-5.333z"></path>
</symbol>
<symbol id="icon-pinterest" viewBox="0 0 32 32">
<title>pinterest</title>
<path fill="#808080" style="fill: var(--color1, #808080)" d="M32 16c0 8.837-7.163 16-16 16s-16-7.163-16-16c0-8.837 7.163-16 16-16s16 7.163 16 16z"></path>
<path fill="#fff" style="fill: var(--color2, #fff)" d="M22.96 12.96c0 4-2.24 7.040-5.52 7.040-1.12 0-2.16-0.64-2.48-1.28 0 0-0.56 2.4-0.72 2.8-0.48 1.6-1.76 3.2-1.84 3.36-0.080 0.080-0.24 0.080-0.24-0.080 0-0.24-0.4-2.24 0-3.92 0.16-0.8 1.36-5.6 1.36-5.6s-0.32-0.64-0.32-1.6c0-1.52 0.88-2.64 2-2.64 0.96 0 1.36 0.72 1.36 1.52 0 0.96-0.56 2.32-0.88 3.68-0.24 1.12 0.56 2 1.6 2 1.92 0 3.28-2.48 3.28-5.44 0-2.24-1.52-3.92-4.32-3.92-3.12 0-5.040 2.32-5.040 4.96 0 0.88 0.24 1.52 0.64 2 0.16 0.24 0.24 0.32 0.16 0.56-0.080 0.16-0.16 0.64-0.24 0.8-0.080 0.24-0.24 0.32-0.48 0.24-1.44-0.56-2.080-2.16-2.080-3.92 0-2.96 2.48-6.4 7.36-6.4 3.76-0.080 6.4 2.8 6.4 5.84z"></path>
</symbol>
<symbol id="icon-twitter" viewBox="0 0 32 32">
<title>twitter</title>
<path fill="#808080" style="fill: var(--color1, #808080)" d="M32 16c0 8.837-7.163 16-16 16s-16-7.163-16-16c0-8.837 7.163-16 16-16s16 7.163 16 16z"></path>
<path fill="#fff" style="fill: var(--color2, #fff)" d="M24.96 10.48c-0.64 0.32-1.36 0.48-2.080 0.56 0.72-0.48 1.36-1.2 1.6-2-0.72 0.4-1.52 0.72-2.32 0.88-0.64-0.72-1.6-1.2-2.72-1.2-2 0-3.68 1.68-3.68 3.68 0 0.32 0 0.56 0.080 0.8-3.040-0.16-5.76-1.6-7.6-3.84-0.24 0.56-0.48 1.2-0.48 1.84 0 1.28 0.64 2.4 1.6 3.040-0.64 0-1.2-0.16-1.68-0.48 0 0 0 0 0 0.080 0 1.76 1.28 3.28 2.96 3.6-0.24 0.16-0.56 0.16-0.88 0.16-0.24 0-0.48 0-0.72-0.080 0.48 1.44 1.84 2.56 3.44 2.56-1.28 0.96-2.88 1.6-4.56 1.6-0.32 0-0.56 0-0.88-0.080 1.6 1.040 3.52 1.68 5.6 1.68 6.8 0 10.48-5.6 10.48-10.48 0-0.16 0-0.32 0-0.48 0.72-0.48 1.36-1.12 1.84-1.84z"></path>
</symbol>
<symbol id="icon-youtube" viewBox="0 0 32 32">
<title>youtube</title>
<path fill="#808080" style="fill: var(--color1, #808080)" d="M32 16c0 8.837-7.163 16-16 16s-16-7.163-16-16c0-8.837 7.163-16 16-16s16 7.163 16 16z"></path>
<path fill="#fff" style="fill: var(--color2, #fff)" d="M24.96 19.6c0 1.44-1.12 2.56-2.56 2.56h-12.8c-1.44 0-2.56-1.12-2.56-2.56v-7.2c0-1.44 1.12-2.56 2.56-2.56h12.8c1.44 0 2.56 1.12 2.56 2.56v7.2zM14.16 18.16l4.88-2.48-4.88-2.56v5.040z"></path>
</symbol>
<symbol id="icon-arrow-down" viewBox="0 0 32 32">
<title>arrow-down</title>
<path d="M16.333 23.667c0.267 0.067 0.6-0.067 0.867-0.333l10.8-10.8c0.4-0.4 0.4-1 0.067-1.333l-1.933-1.933c-0.333-0.333-0.933-0.333-1.333 0.067l-8.467 8.467-8.467-8.467c-0.4-0.4-1-0.4-1.333-0.067l-1.933 1.933c-0.333 0.333-0.333 0.933 0.067 1.333l10.8 10.8c0.267 0.267 0.6 0.333 0.867 0.333z"></path>
</symbol>
<symbol id="icon-arrow-down-thin" viewBox="0 0 32 32">
<title>arrow-down-thin</title>
<path d="M16.533 23.067c0.267 0.067 0.6-0.067 0.867-0.333l10.867-10.867c0.4-0.4 0.4-1 0.067-1.333l-1-0.933c-0.333-0.333-0.933-0.333-1.333 0.067l-9.467 9.4-9.4-9.4c-0.4-0.4-1-0.4-1.333-0.067l-1 1c-0.333 0.333-0.333 0.933 0.067 1.333l10.867 10.867c0.2 0.2 0.533 0.267 0.8 0.267z"></path>
</symbol>
<symbol id="icon-arrow-up" viewBox="0 0 32 32">
<title>arrow-up</title>
<path d="M16.333 8.333c-0.267-0.067-0.6 0.067-0.867 0.333l-10.8 10.8c-0.4 0.4-0.4 1-0.067 1.333l1.933 1.933c0.333 0.333 0.933 0.333 1.333-0.067l8.467-8.467 8.467 8.467c0.4 0.4 1 0.4 1.333 0.067l1.933-1.933c0.333-0.333 0.333-0.933-0.067-1.333l-10.8-10.8c-0.267-0.267-0.6-0.333-0.867-0.333z"></path>
</symbol>
<symbol id="icon-arrow-up-thin" viewBox="0 0 32 32">
<title>arrow-up-thin</title>
<path d="M16.533 9.333c-0.267-0.067-0.6 0.067-0.867 0.333l-10.8 10.8c-0.4 0.4-0.4 1-0.067 1.333l1 1c0.333 0.333 0.933 0.333 1.333-0.067l9.4-9.4 9.4 9.4c0.4 0.4 1 0.4 1.333 0.067l1-1c0.333-0.333 0.333-0.933-0.067-1.333l-10.8-10.8c-0.267-0.267-0.6-0.333-0.867-0.333z"></path>
</symbol>
<symbol id="icon-arrow-left" viewBox="0 0 32 32">
<title>arrow-left</title>
<path d="M8.667 16c-0.067 0.267 0.067 0.6 0.333 0.867l10.867 10.867c0.4 0.4 1 0.4 1.333 0.067l1.933-1.933c0.333-0.333 0.333-0.933-0.067-1.333l-8.533-8.533 8.467-8.467c0.4-0.4 0.4-1 0.067-1.333l-1.933-1.933c-0.333-0.333-0.933-0.333-1.333 0.067l-10.8 10.8c-0.267 0.267-0.333 0.6-0.333 0.867z"></path>
</symbol>
<symbol id="icon-arrow-right" viewBox="0 0 32 32">
<title>arrow-right</title>
<path d="M23.333 16c0.067-0.267-0.067-0.6-0.333-0.867l-10.8-10.8c-0.4-0.4-1-0.4-1.333-0.067l-1.933 1.933c-0.333 0.333-0.333 0.933 0.067 1.333l8.467 8.467-8.467 8.467c-0.4 0.4-0.4 1-0.067 1.333l1.933 1.933c0.333 0.333 0.933 0.333 1.333-0.067l10.867-10.867c0.2-0.2 0.267-0.533 0.267-0.8z"></path>
</symbol>
<symbol id="icon-close" viewBox="0 0 32 32">
<title>close</title>
<path d="M24.858 7.142c-2.267-2.267-5.399-3.669-8.858-3.669-6.919 0-12.528 5.609-12.528 12.528 0 3.459 1.402 6.591 3.669 8.858s5.399 3.669 8.858 3.669c6.919 0 12.528-5.609 12.528-12.528 0-3.46-1.402-6.591-3.669-8.858zM23.77 23.77c-1.972 1.898-4.658 3.067-7.617 3.067-6.069 0-10.99-4.92-10.99-10.99 0-2.959 1.169-5.645 3.071-7.62 1.969-1.895 4.655-3.064 7.613-3.064 6.069 0 10.99 4.92 10.99 10.99 0 2.959-1.169 5.645-3.071 7.62z"></path>
<path d="M20.288 10.106l-4.288 4.283-4.288-4.283-1.605 1.605 4.283 4.288-4.283 4.288 1.605 1.605 4.288-4.283 4.288 4.283 1.605-1.605-4.288-4.288 4.288-4.288-1.605-1.605z"></path>
</symbol>
<symbol id="icon-dot" viewBox="0 0 32 32">
<title>dot</title>
<path d="M21.333 16c0 2.946-2.388 5.333-5.333 5.333s-5.333-2.388-5.333-5.333c0-2.946 2.388-5.333 5.333-5.333s5.333 2.388 5.333 5.333z"></path>
</symbol>
<symbol id="icon-error" viewBox="0 0 32 32">
<title>error</title>
<path d="M16 4c-6.628 0-12 5.372-12 12s5.372 12 12 12c6.628 0 12-5.372 12-12s-5.372-12-12-12zM18.666 25.167h-5.333v-4.667h5.333v4.667zM18.666 11.060l-1.114 8.107h-3.274l-0.947-8.107v-3.893h5.333v3.893z"></path>
</symbol>
<symbol id="icon-info" viewBox="0 0 32 32">
<title>info</title>
<path fill="#d7d7d7" style="fill: var(--color3, #d7d7d7)" d="M16 4.261c6.484 0 11.739 5.256 11.739 11.739s-5.256 11.739-11.739 11.739c-6.484 0-11.739-5.256-11.739-11.739s5.256-11.739 11.739-11.739zM16 3.75c-6.766 0-12.25 5.484-12.25 12.25s5.484 12.25 12.25 12.25c6.766 0 12.25-5.484 12.25-12.25s-5.484-12.25-12.25-12.25v0z"></path>
<path fill="#d7d7d7" style="fill: var(--color3, #d7d7d7)" d="M17.327 18.685h-3.328v-0.337c-0.001-0.038-0.002-0.083-0.002-0.128 0-0.448 0.072-0.88 0.204-1.284 0.13-0.343 0.324-0.663 0.566-0.939 0.525-0.534 1.085-1.035 1.674-1.499 0.41-0.261 0.673-0.639 0.746-1.082 0.002-0.026 0.003-0.046 0.003-0.066 0-0.271-0.11-0.516-0.287-0.693-0.208-0.168-0.475-0.269-0.766-0.269-0.034 0-0.068 0.001-0.101 0.004-0.005-0.001-0.016-0.001-0.028-0.001-0.387 0-0.737 0.158-0.989 0.414-0.309 0.394-0.5 0.893-0.511 1.437l-3.399-0.416c0.053-1.187 0.546-2.25 1.318-3.038q1.189-1.143 3.639-1.143c0.070-0.003 0.151-0.005 0.234-0.005 1.047 0 2.025 0.298 2.852 0.815 0.942 0.579 1.575 1.627 1.575 2.824 0 0.013-0 0.026-0 0.039-0.003 0.531-0.157 1.028-0.42 1.449-0.462 0.648-1.020 1.207-1.656 1.663-0.46 0.326-0.831 0.7-1.129 1.128-0.131 0.286-0.201 0.603-0.201 0.936 0 0.068 0.003 0.134 0.008 0.2zM13.882 19.573h3.573v3.144h-3.573v-3.144z"></path>
</symbol>
<symbol id="icon-locator-small" viewBox="0 0 32 32">
<title>locator-small</title>
<path d="M15.933 4c-3.467 0-6.4 2.933-6.4 6.533 0 3.067 6.333 17.133 6.533 17.467 0.333-1.133 6.4-14.2 6.4-17.467 0-3.4-2.667-6.533-6.533-6.533zM15.933 13.333c-1.6 0-2.733-1.267-2.733-2.733 0-1.6 1.133-2.733 2.733-2.733s2.8 1.133 2.8 2.733c0 1.867-1.533 2.733-2.8 2.733z"></path>
</symbol>
<symbol id="icon-minus-circle" viewBox="0 0 32 32">
<title>minus-circle</title>
<path d="M16 3.75c-6.766 0-12.25 5.484-12.25 12.25s5.484 12.25 12.25 12.25c6.766 0 12.25-5.484 12.25-12.25s-5.484-12.25-12.25-12.25zM22.806 17.361h-13.611v-2.042h13.611v2.042z"></path>
</symbol>
<symbol id="icon-minus" viewBox="0 0 32 32">
<title>minus</title>
<path d="M4 13.4h24v5.133h-24v-5.133z"></path>
</symbol>
<symbol id="icon-plus-circle" viewBox="0 0 32 32">
<title>plus-circle</title>
<path d="M16 3.5c-6.904 0-12.5 5.596-12.5 12.5s5.596 12.5 12.5 12.5c6.904 0 12.5-5.596 12.5-12.5s-5.596-12.5-12.5-12.5zM23.639 16.695h-6.945v6.945h-1.389v-6.945h-6.945v-1.389h6.945v-6.945h1.389v6.945h6.945v1.389z"></path>
</symbol>
<symbol id="icon-plus" viewBox="0 0 32 32">
<title>plus</title>
<path d="M13.4 4h5.133v24h-5.133v-24z"></path>
<path d="M4 13.4h24v5.133h-24v-5.133z"></path>
</symbol>
<symbol id="icon-print" viewBox="0 0 32 32">
<title>print</title>
<path d="M10 4h12v7.667h-12v-7.667z"></path>
<path d="M10 19.8v8.2h12v-8.2h-12zM20.933 25.267h-9.867v-1.067h9.8v1.067zM20.933 22.533h-9.867v-1.067h9.8v1.067z"></path>
<path d="M7.8 8.933c-2.133 0.133-3.8 1.867-3.8 4v5.6c0 2.133 1.667 3.933 3.8 4v-4.933h16.333v4.933c2.133-0.133 3.8-1.867 3.8-4v-5.6c0-2.133-1.667-3.933-3.8-4v5.467h-16.333v-5.467z"></path>
</symbol>
<symbol id="icon-valid" viewBox="0 0 32 32">
<title>valid</title>
<path d="M28.867 4.333c0.067 0.067 3.133 2.733 3.133 3.533 0 0.6-1.133 1.6-1.333 1.8-0.933 0.867-15.133 15.067-18.2 18.067-0.2 0.2-0.533 0.267-0.6 0.267-0.8 0-1.733-1.333-2.533-2.133-3.133-3.133-6.133-6.333-9.067-9.467-0.2-0.2-0.267-0.467-0.267-0.667 0-0.667 0.333-0.733 1.067-1.333 0.533-0.533 1.533-1.467 2.133-1.933 0.133-0.2 0.533-0.267 0.667-0.267 0.6 0 2.4 2.067 2.867 2.6 1.467 1.4 2.867 2.933 4.333 4.4 0.2 0.2 0.533 0.333 0.667 0.333 0.2 0 0.533-0.133 0.733-0.333 4-3.933 10.4-10.4 14.333-14.267 0.533-0.533 0.667-0.933 1.333-0.933 0.2 0 0.467 0 0.733 0.333z"></path>
</symbol>
<symbol id="icon-wishlist" viewBox="0 0 32 32">
<title>wishlist</title>
<path d="M5.236 8.291v16.145c0.145 2.545 2.327 4.655 4.364 4.655 0 0 16.582 0 18.036 0 1.527 0 3.055-0.8 2.982-3.055 0-1.527 0-2.327 0-2.327h-16.145c0 0 0.073 2.327-0.8 3.055-0.873 0.8-1.891 0.873-3.055 0.8s-2.982-0.655-3.055-2.327 0-20.509 0-20.509 12.364 0 15.127 0 3.345 1.164 3.345 2.036v13.091c0 0.945 0.8 1.527 0.8 1.527s1.527 0.582 1.527-1.527v-13.309c0-1.745-1.527-3.636-4.145-3.636-1.527 0-17.745 0-19.927 0s-2.909 2.327-2.909 2.327v3.055h3.855z"></path>
<path d="M18.036 17.527h4.364c0.727 0 1.309 0.509 1.309 1.164s-0.582 1.164-1.309 1.164h-4.364c-0.727 0-1.309-0.509-1.309-1.164 0-0.582 0.582-1.164 1.309-1.164z"></path>
<path d="M18.036 12.945h4.364c0.727 0 1.309 0.509 1.309 1.164s-0.582 1.164-1.309 1.164h-4.364c-0.727 0-1.309-0.509-1.309-1.164s0.582-1.164 1.309-1.164z"></path>
<path d="M18.036 8.291h4.364c0.727 0 1.309 0.509 1.309 1.164s-0.582 1.164-1.309 1.164h-4.364c-0.727 0-1.309-0.509-1.309-1.164 0-0.582 0.582-1.164 1.309-1.164z"></path>
<path d="M14.618 7.564c0 0 0.582 0.436 0.582 0.582 0 0.073-0.218 0.218-0.218 0.291-0.145 0.145-2.909 2.4-3.491 2.909-0.073 0-0.073 0.073-0.145 0.073-0.145 0-0.364-0.218-0.509-0.364-0.582-0.509-1.164-1.018-1.745-1.527 0 0-0.073-0.073-0.073-0.073 0-0.145 0.073-0.145 0.218-0.218 0.073-0.073 0.291-0.218 0.436-0.291 0 0 0.073-0.073 0.145-0.073 0.145 0 0.436 0.364 0.582 0.436 0.291 0.218 0.582 0.509 0.8 0.727 0.073 0 0.073 0.073 0.145 0.073s0.073 0 0.145-0.073c0.8-0.655 2.036-1.673 2.764-2.327 0.073-0.073 0.145-0.145 0.218-0.145s0.073 0 0.145 0z"></path>
<path d="M14.618 12.218c0 0 0.582 0.436 0.582 0.582 0 0.073-0.218 0.218-0.218 0.291-0.145 0.145-2.909 2.4-3.491 2.909-0.073 0-0.073 0.073-0.145 0.073-0.145 0-0.364-0.218-0.509-0.364-0.582-0.509-1.164-1.018-1.745-1.527 0 0-0.073-0.073-0.073-0.073 0-0.145 0.073-0.145 0.218-0.218 0.073-0.073 0.291-0.218 0.436-0.291 0 0 0.073-0.073 0.145-0.073 0.145 0 0.436 0.364 0.582 0.436 0.291 0.218 0.582 0.509 0.8 0.727 0.073 0 0.073 0.073 0.145 0.073s0.073 0 0.145-0.073c0.8-0.655 2.036-1.673 2.764-2.327 0.073-0.073 0.145-0.145 0.218-0.145 0.073-0.073 0.073-0.073 0.145 0z"></path>
<path d="M14.618 16.8c0 0 0.582 0.436 0.582 0.582 0 0.073-0.218 0.218-0.218 0.291-0.145 0.145-2.909 2.4-3.491 2.909-0.073 0-0.073 0.073-0.145 0.073-0.145 0-0.364-0.218-0.509-0.364-0.582-0.509-1.164-1.018-1.745-1.527 0 0-0.073-0.073-0.073-0.073 0-0.145 0.073-0.145 0.218-0.218 0.073-0.073 0.291-0.218 0.436-0.291 0 0 0.073-0.073 0.145-0.073 0.145 0 0.436 0.364 0.582 0.436 0.291 0.218 0.582 0.509 0.8 0.727 0.073 0 0.073 0.073 0.145 0.073s0.073 0 0.145-0.073c0.8-0.655 2.036-1.673 2.764-2.327 0.073-0.073 0.145-0.145 0.218-0.145s0.073 0 0.145 0z"></path>
</symbol>
<symbol id="icon-lock" viewBox="0 0 32 32">
<title>lock</title>
<path d="M24.237 12.607l-1.387-0.34c0.060-0.059 0.111-0.127 0.151-0.202l0.002-2.418c0-3.113-3.393-5.647-7-5.647s-7 2.533-7 5.647v2.513l-1.387 0.407c-0.746 0.182-1.292 0.844-1.292 1.635 0 0.070 0.004 0.139 0.013 0.207l-0.001 11.772c-0.001 0.020-0.001 0.043-0.001 0.067 0 0.964 0.778 1.746 1.741 1.753h15.927c0.926-0.012 1.671-0.766 1.671-1.693 0-0.045-0.002-0.089-0.005-0.133l0-11.774c0.001-0.022 0.002-0.048 0.002-0.075 0-0.854-0.614-1.566-1.424-1.717zM13.003 9.687c0-1.333 1.333-2.44 3.040-2.453 0.506 0.002 0.987 0.107 1.423 0.296 0.875 0.325 1.509 1.164 1.537 2.154l0 1.843c-0.826-0.124-1.78-0.195-2.75-0.195-0.095 0-0.19 0.001-0.284 0.002-0.12-0.003-0.278-0.005-0.436-0.005-0.892 0-1.77 0.058-2.631 0.169l0.102-1.811zM17.003 20.48v2.313c0 0.213 0.127 0.54-0.093 0.54h-1.733c-0.22 0-0.173-0.327-0.173-0.54v-2.313c-0.722-0.415-1.226-1.139-1.332-1.987-0.007-0.073-0.009-0.143-0.009-0.213 0-1.356 1.094-2.456 2.447-2.467 1.286 0.024 2.318 1.071 2.318 2.36 0 0.049-0.002 0.098-0.005 0.147-0.103 0.924-0.642 1.711-1.406 2.153zM21.763 12.047v0l-0.047-0.047h0.047v0.040z"></path>
</symbol>
<symbol id="icon-cross" viewBox="0 0 32 32">
<title>cross</title>
<path d="M0.003 25.994l26.001-25.992 6.002 6.004-26.001 25.992-6.002-6.004z"></path>
<path d="M-0.002 6.006l6.003-6.003 25.996 25.996-6.003 6.003-25.996-25.996z"></path>
</symbol>
<symbol id="icon-radio-checked" viewBox="0 0 32 32">
<title>radio-checked</title>
<path d="M16 0c-8.837 0-16 7.163-16 16s7.163 16 16 16 16-7.163 16-16-7.163-16-16-16zM16 28c-6.627 0-12-5.373-12-12s5.373-12 12-12c6.627 0 12 5.373 12 12s-5.373 12-12 12zM10 16c0-3.314 2.686-6 6-6s6 2.686 6 6c0 3.314-2.686 6-6 6s-6-2.686-6-6z"></path>
</symbol>
<symbol id="icon-radio-unchecked" viewBox="0 0 32 32">
<title>radio-unchecked</title>
<path d="M16 0c-8.837 0-16 7.163-16 16s7.163 16 16 16 16-7.163 16-16-7.163-16-16-16zM16 28c-6.627 0-12-5.373-12-12s5.373-12 12-12c6.627 0 12 5.373 12 12s-5.373 12-12 12z"></path>
</symbol>
<symbol id="icon-plus-thin" viewBox="0 0 32 32">
<title>plus-thin</title>
<path d="M25.313 17.313h-8v8h-2.625v-8h-8v-2.625h8v-8h2.625v8h8v2.625z"></path>
</symbol>
<symbol id="icon-triangle-down" viewBox="0 0 32 32">
<title>triangle-down</title>
<path d="M9.313 13.313h13.375l-6.688 6.688z"></path>
</symbol>
<symbol id="icon-triangle-up" viewBox="0 0 32 32">
<title>triangle-up</title>
<path d="M9.313 18.688l6.688-6.688 6.688 6.688h-13.375z"></path>
</symbol>
<symbol id="icon-dollar" viewBox="0 0 32 32">
<title>dollar</title>
<path d="M15.75 14.563c3 0.813 6.25 2 6.25 5.813 0 2.75-2.063 4.25-4.688 4.75v2.875h-4v-2.875c-2.563-0.563-4.688-2.188-4.875-5.125h2.938c0.125 1.563 1.188 2.813 3.938 2.813 2.938 0 3.625-1.438 3.625-2.375 0-1.25-0.688-2.438-4-3.25-3.75-0.875-6.25-2.438-6.25-5.5 0-2.563 2.063-4.25 4.625-4.813v-2.875h4v2.938c2.813 0.688 4.25 2.75 4.313 5.063h-2.938c-0.063-1.688-1-2.813-3.375-2.813-2.25 0-3.563 1.063-3.563 2.5 0 1.25 1 2.063 4 2.875z"></path>
</symbol>
<symbol id="icon-call-made" viewBox="0 0 32 32">
<title>call-made</title>
<path d="M12 6.688h13.313v13.313h-2.625v-8.813l-15.5 15.5-1.875-1.875 15.5-15.5h-8.813v-2.625z"></path>
</symbol>
<symbol id="icon-gift-card" viewBox="0 0 32 32">
<title>gift-card</title>
<path d="M26.688 18.688v-8h-6.813l2.813 3.75-2.188 1.563c-1.502-2.039-3.020-4.063-4.5-6.125-1.48 2.061-2.998 4.086-4.5 6.125l-2.188-1.563 2.813-3.75h-6.813v8h21.375zM26.688 25.313v-2.625h-21.375v2.625h21.375zM12 5.313c-0.75 0-1.313 0.625-1.313 1.375s0.563 1.313 1.313 1.313 1.313-0.563 1.313-1.313-0.563-1.375-1.313-1.375zM20 5.313c-0.75 0-1.313 0.625-1.313 1.375s0.563 1.313 1.313 1.313 1.313-0.563 1.313-1.313-0.563-1.375-1.313-1.375zM26.688 8c1.5 0 2.625 1.188 2.625 2.688v14.625c0 1.5-1.125 2.688-2.625 2.688h-21.375c-1.5 0-2.625-1.188-2.625-2.688v-14.625c0-1.5 1.125-2.688 2.625-2.688h2.938c-0.125-0.438-0.25-0.875-0.25-1.313 0-2.188 1.813-4 4-4 1.375 0 2.563 0.688 3.313 1.75l0.688 0.938 0.688-0.938c0.75-1.063 1.938-1.75 3.313-1.75 2.188 0 4 1.813 4 4 0 0.438-0.125 0.875-0.25 1.313h2.938z"></path>
</symbol>
<symbol id="icon-check" viewBox="0 0 32 32">
<title>check</title>
<path d="M12 21.563l14.125-14.125 1.875 1.875-16 16-7.438-7.438 1.875-1.875z"></path>
</symbol>
<symbol id="icon-checkbox-checked" viewBox="0 0 32 32">
<title>checkbox-checked</title>
<path d="M13.313 22.688l12-12-1.875-1.938-10.125 10.125-4.75-4.75-1.875 1.875zM25.313 4c1.5 0 2.688 1.25 2.688 2.688v18.625c0 1.438-1.188 2.688-2.688 2.688h-18.625c-1.5 0-2.688-1.25-2.688-2.688v-18.625c0-1.438 1.188-2.688 2.688-2.688h18.625z"></path>
</symbol>
<symbol id="icon-checkbox-unchecked" viewBox="0 0 32 32">
<title>checkbox-unchecked</title>
<path d="M25.313 4c1.438 0 2.688 1.25 2.688 2.688v18.625c0 1.438-1.25 2.688-2.688 2.688h-18.625c-1.438 0-2.688-1.25-2.688-2.688v-18.625c0-1.438 1.25-2.688 2.688-2.688h18.625zM25.313 6.688h-18.625v18.625h18.625v-18.625z"></path>
</symbol>
<symbol id="icon-envelope" viewBox="0 0 32 32">
<title>envelope</title>
<path d="M26.688 10.688v-2.688l-10.688 6.688-10.688-6.688v2.688l10.688 6.625zM26.688 5.313c1.438 0 2.625 1.25 2.625 2.688v16c0 1.438-1.188 2.688-2.625 2.688h-21.375c-1.438 0-2.625-1.25-2.625-2.688v-16c0-1.438 1.188-2.688 2.625-2.688h21.375z"></path>
</symbol>
<symbol id="icon-question-answer" viewBox="0 0 32 32">
<title>question-answer</title>
<path d="M22.688 16c0 0.75-0.625 1.313-1.375 1.313h-13.313l-5.313 5.375v-18.688c0-0.75 0.563-1.313 1.313-1.313h17.313c0.75 0 1.375 0.563 1.375 1.313v12zM28 8c0.75 0 1.313 0.563 1.313 1.313v20l-5.313-5.313h-14.688c-0.75 0-1.313-0.563-1.313-1.313v-2.688h17.313v-12h2.688z"></path>
</symbol>
<symbol id="icon-star" viewBox="0 0 32 32">
<title>star</title>
<path d="M16 23l-8.25 5 2.188-9.375-7.25-6.313 9.563-0.813 3.75-8.813 3.75 8.813 9.563 0.813-7.25 6.313 2.188 9.375z"></path>
</symbol>
<symbol id="icon-locator" viewBox="0 0 32 32">
<title>locator</title>
<path d="M16 15.313c1.813 0 3.313-1.5 3.313-3.313s-1.5-3.313-3.313-3.313-3.313 1.5-3.313 3.313 1.5 3.313 3.313 3.313zM16 2.688c5.188 0 9.313 4.125 9.313 9.313 0 7-9.313 17.313-9.313 17.313s-9.313-10.313-9.313-17.313c0-5.188 4.125-9.313 9.313-9.313z"></path>
</symbol>
<symbol id="icon-person" viewBox="0 0 32 32">
<title>person</title>
<path d="M16 18.688c3.563 0 10.688 1.75 10.688 5.313v2.688h-21.375v-2.688c0-3.563 7.125-5.313 10.688-5.313zM16 16c-2.938 0-5.313-2.375-5.313-5.313s2.375-5.375 5.313-5.375 5.313 2.438 5.313 5.375-2.375 5.313-5.313 5.313z"></path>
</symbol>
<symbol id="icon-pin-drop" viewBox="0 0 32 32">
<title>pin-drop</title>
<path d="M6.688 26.688h18.625v2.625h-18.625v-2.625zM13.313 10.688c0 1.438 1.25 2.625 2.688 2.625 1.5 0 2.688-1.188 2.688-2.625s-1.25-2.688-2.688-2.688-2.688 1.25-2.688 2.688zM24 10.688c0 6-8 14.625-8 14.625s-8-8.625-8-14.625c0-4.438 3.563-8 8-8s8 3.563 8 8z"></path>
</symbol>
<symbol id="icon-play-circle-filled" viewBox="0 0 32 32">
<title>play-circle-filled</title>
<path d="M13.313 22l8-6-8-6v12zM16 2.688c7.375 0 13.313 5.938 13.313 13.313s-5.938 13.313-13.313 13.313-13.313-5.938-13.313-13.313 5.938-13.313 13.313-13.313z"></path>
</symbol>
<symbol id="icon-play-circle" viewBox="0 0 32 32">
<title>play-circle</title>
<path d="M16 26.688c5.875 0 10.688-4.813 10.688-10.688s-4.813-10.688-10.688-10.688-10.688 4.813-10.688 10.688 4.813 10.688 10.688 10.688zM16 2.688c7.375 0 13.313 5.938 13.313 13.313s-5.938 13.313-13.313 13.313-13.313-5.938-13.313-13.313 5.938-13.313 13.313-13.313zM13.313 22v-12l8 6z"></path>
</symbol>
<symbol id="icon-minus-thin" viewBox="0 0 32 32">
<title>minus-thin</title>
<path d="M25.313 17.313h-18.625v-2.625h18.625v2.625z"></path>
</symbol>
<symbol id="icon-star-empty" viewBox="0 0 32 32">
<title>star-empty</title>
<path d="M16 20.563l5 3-1.313-5.688 4.438-3.875-5.875-0.5-2.25-5.375-2.25 5.375-5.875 0.5 4.438 3.875-1.313 5.688zM29.313 12.313l-7.25 6.313 2.188 9.375-8.25-5-8.25 5 2.188-9.375-7.25-6.313 9.563-0.813 3.75-8.813 3.75 8.813z"></path>
</symbol>
<symbol id="icon-star-half" viewBox="0 0 32 32">
<title>star-half</title>
<path d="M16 20.563l5 3-1.313-5.688 4.438-3.875-5.875-0.5-2.25-5.375v12.438zM29.313 12.313l-7.25 6.313 2.188 9.375-8.25-5-8.25 5 2.188-9.375-7.25-6.313 9.563-0.813 3.75-8.813 3.75 8.813z"></path>
</symbol>
</defs>
</svg>
